<svg width="16" height="14" viewBox="0 0 16 14" fill="none" xmlns="http://www.w3.org/2000/svg">
<path d="M14.1204 1.76845C13.7632 1.41167 13.3391 1.12865 12.8722 0.93555C12.4054 0.742453 11.905 0.643066 11.3997 0.643066C10.8944 0.643066 10.394 0.742453 9.92722 0.93555C9.4604 1.12865 9.03625 1.41167 8.67903 1.76845L7.93765 2.50854L7.19628 1.76845C6.47471 1.04812 5.49604 0.64344 4.47558 0.64344C3.45512 0.64344 2.47645 1.04812 1.75488 1.76845C1.03331 2.48878 0.62793 3.46575 0.62793 4.48445C0.62793 5.50315 1.03331 6.48013 1.75488 7.20046L2.49625 7.94055L7.93765 13.3726L13.3791 7.94055L14.1204 7.20046C14.4778 6.84385 14.7613 6.42043 14.9548 5.95441C15.1482 5.48839 15.2477 4.98889 15.2477 4.48445C15.2477 3.98001 15.1482 3.48051 14.9548 3.01449C14.7613 2.54847 14.4778 2.12506 14.1204 1.76845V1.76845Z" stroke="#6E6E6E" stroke-width="1.21727" stroke-linecap="round" stroke-linejoin="round"/>
</svg>
