<svg width="18" height="18" viewBox="0 0 18 18" fill="none" xmlns="http://www.w3.org/2000/svg">
<path d="M11.6758 4.44902C12.1234 4.00144 12.7304 3.75 13.3634 3.75C13.9964 3.75 14.6034 4.00144 15.051 4.44902C15.4986 4.89659 15.75 5.50363 15.75 6.1366C15.75 6.76956 15.4986 7.3766 15.051 7.82418L11.0825 11.7927C10.6349 12.2403 10.0279 12.4917 9.3949 12.4917C8.76193 12.4917 8.15489 12.2403 7.70732 11.7927C7.25975 11.3451 7.0083 10.7381 7.0083 10.1051C7.0083 9.47214 7.25975 8.8651 7.70732 8.41753L8.30067 7.82418" stroke="white" stroke-width="1.5" stroke-linecap="round" stroke-linejoin="round"/>
<path d="M6.32418 13.1758C6.10256 13.3974 5.83946 13.5732 5.54991 13.6932C5.26035 13.8131 4.95001 13.8748 4.6366 13.8748C4.32318 13.8748 4.01284 13.8131 3.72329 13.6932C3.43373 13.5732 3.17063 13.3974 2.94902 13.1758C2.50144 12.7282 2.25 12.1212 2.25 11.4882C2.25 10.8553 2.50144 10.2482 2.94902 9.80065L6.91753 5.83214C7.3651 5.38456 7.97214 5.13312 8.60511 5.13312C9.23807 5.13312 9.84511 5.38456 10.2927 5.83214C10.7403 6.27971 10.9917 6.88675 10.9917 7.51971C10.9917 8.15268 10.7403 8.75972 10.2927 9.20729L9.67503 9.82495" stroke="white" stroke-width="1.5" stroke-linecap="round" stroke-linejoin="round"/>
</svg>
