<svg width="18" height="18" viewBox="0 0 18 18" fill="none" xmlns="http://www.w3.org/2000/svg">
<path d="M11.6758 4.44902C12.1234 4.00144 12.7304 3.75 13.3634 3.75C13.9963 3.75 14.6034 4.00144 15.051 4.44902C15.4985 4.89659 15.75 5.50363 15.75 6.1366C15.75 6.76956 15.4985 7.3766 15.051 7.82418L11.0824 11.7927C10.6349 12.2403 10.0278 12.4917 9.39487 12.4917C8.7619 12.4917 8.15486 12.2403 7.70729 11.7927C7.25971 11.3451 7.00827 10.7381 7.00827 10.1051C7.00827 9.47214 7.25971 8.8651 7.70729 8.41753L8.30064 7.82418" stroke="white" stroke-width="1.5" stroke-linecap="round" stroke-linejoin="round"/>
<path d="M6.32414 13.1758C6.10253 13.3974 5.83943 13.5732 5.54988 13.6932C5.26032 13.8131 4.94998 13.8748 4.63657 13.8748C4.32315 13.8748 4.01281 13.8131 3.72326 13.6932C3.4337 13.5732 3.1706 13.3974 2.94899 13.1758C2.50141 12.7282 2.24997 12.1212 2.24997 11.4882C2.24997 10.8553 2.50141 10.2482 2.94899 9.80065L6.9175 5.83214C7.36507 5.38456 7.97211 5.13312 8.60508 5.13312C9.23804 5.13312 9.84508 5.38456 10.2927 5.83214C10.7402 6.27971 10.9917 6.88675 10.9917 7.51971C10.9917 8.15268 10.7402 8.75972 10.2927 9.20729L9.675 9.82495" stroke="white" stroke-width="1.5" stroke-linecap="round" stroke-linejoin="round"/>
</svg>
