<svg width="32" height="32" viewBox="0 0 32 32" fill="none" xmlns="http://www.w3.org/2000/svg">
<path d="M28.5755 19.1368L28.56 19.1993C26.8016 26.1085 19.7874 30.3054 12.861 28.5784C5.91678 26.8466 1.68929 19.8106 3.42183 12.8647L3.42185 12.8646C5.15287 5.9174 12.1885 1.68966 19.1335 3.42142L19.1335 3.42142C26.0802 5.15319 30.3075 12.19 28.5755 19.1368Z" fill="url(#paint0_linear_2_553)" stroke="#FFD9EC" stroke-width="0.733333"/>
<path d="M13.8957 10.9017C13.7152 10.8759 13.7066 10.8673 13.7926 10.8588C13.9559 10.833 14.3341 10.8673 14.6006 10.9275C15.2194 11.0736 15.7781 11.4518 16.3712 12.1137L16.526 12.2942L16.7494 12.2598C17.7035 12.1051 18.6834 12.2254 19.5 12.6036C19.7235 12.7068 20.0759 12.9131 20.1189 12.9646C20.1361 12.9818 20.1618 13.0936 20.179 13.2053C20.2392 13.6093 20.2134 13.9102 20.0845 14.1422C20.0157 14.2712 20.0157 14.3055 20.0587 14.4173C20.0931 14.5032 20.1962 14.5634 20.2908 14.5634C20.4971 14.5634 20.712 14.2368 20.8151 13.7812L20.8581 13.6007L20.9354 13.6867C21.3738 14.1766 21.7176 14.8557 21.7692 15.337L21.7864 15.4659L21.709 15.3542C21.5801 15.1565 21.4598 15.0276 21.2965 14.9158C21.0042 14.7181 20.6948 14.658 19.8782 14.615C19.139 14.572 18.7178 14.5118 18.3052 14.3743C17.6004 14.1422 17.2394 13.8414 16.4056 12.7326C16.036 12.2426 15.8039 11.9762 15.5719 11.7527C15.0647 11.2627 14.5576 11.0049 13.8957 10.9017Z" fill="#FF007A"/>
<path d="M20.2993 11.9934C20.3165 11.6667 20.3595 11.4519 20.454 11.2542C20.4884 11.1768 20.5228 11.108 20.5314 11.108C20.54 11.108 20.5228 11.1682 20.497 11.237C20.4283 11.4261 20.4197 11.6925 20.4626 11.9934C20.5228 12.3802 20.5486 12.4317 20.9612 12.8529C21.1503 13.0506 21.3738 13.2999 21.4597 13.403L21.6058 13.5921L21.4597 13.4546C21.2792 13.2827 20.8666 12.9561 20.7721 12.9131C20.7119 12.8787 20.7033 12.8787 20.6603 12.9217C20.6259 12.9561 20.6174 13.0076 20.6174 13.2569C20.6088 13.6437 20.5572 13.8844 20.4283 14.1336C20.3595 14.2626 20.3509 14.2368 20.4111 14.0907C20.454 13.9789 20.4626 13.9274 20.4626 13.5577C20.4626 12.8099 20.3767 12.6294 19.8524 12.3286C19.7234 12.2512 19.4999 12.1395 19.371 12.0793C19.2335 12.0192 19.1303 11.9676 19.1389 11.9676C19.1561 11.9504 19.6633 12.0965 19.861 12.1825C20.1618 12.3028 20.2134 12.3114 20.2477 12.3028C20.2735 12.277 20.2907 12.2083 20.2993 11.9934Z" fill="#FF007A"/>
<path d="M14.2481 13.2741C13.8871 12.7755 13.655 12.002 13.7066 11.4261L13.7238 11.2456L13.8098 11.2627C13.9645 11.2885 14.2309 11.3917 14.3599 11.469C14.7037 11.6753 14.8584 11.959 15.0045 12.6638C15.0475 12.8701 15.1077 13.1108 15.1335 13.1881C15.1764 13.3171 15.3398 13.6179 15.4773 13.807C15.5718 13.9445 15.5117 14.0133 15.2968 13.9961C14.9702 13.9617 14.5318 13.6609 14.2481 13.2741Z" fill="#FF007A"/>
<path d="M19.861 17.0131C18.1591 16.3255 17.5574 15.7324 17.5574 14.7267C17.5574 14.5806 17.566 14.4603 17.566 14.4603C17.5746 14.4603 17.6347 14.5118 17.7121 14.572C18.0559 14.8471 18.4427 14.9674 19.5171 15.1221C20.1446 15.2167 20.5056 15.2854 20.8323 15.3972C21.8723 15.741 22.517 16.4458 22.6717 17.3999C22.7147 17.675 22.6889 18.1993 22.6201 18.4744C22.56 18.6893 22.388 19.0846 22.3451 19.0932C22.3365 19.0932 22.3193 19.0503 22.3193 18.9815C22.3021 18.6205 22.1216 18.2767 21.8207 18.0102C21.4597 17.7008 20.9956 17.4687 19.861 17.0131Z" fill="#FF007A"/>
<path d="M18.6578 17.2968C18.6406 17.1678 18.5976 17.0045 18.5718 16.9358L18.5288 16.8068L18.6062 16.9014C18.7179 17.0303 18.8039 17.185 18.8813 17.3999C18.9414 17.5632 18.9414 17.6148 18.9414 17.8813C18.9414 18.1391 18.9328 18.1993 18.8813 18.3454C18.7953 18.5775 18.6922 18.7408 18.5203 18.9213C18.2108 19.2394 17.8068 19.4113 17.2309 19.4886C17.1278 19.4972 16.8355 19.523 16.5777 19.5402C15.933 19.5746 15.5032 19.6434 15.1164 19.7809C15.0649 19.7981 15.0133 19.8153 15.0047 19.8067C14.9875 19.7895 15.254 19.6348 15.4689 19.5316C15.7697 19.3855 16.0791 19.3081 16.7582 19.1878C17.0934 19.1362 17.4372 19.0675 17.5232 19.0331C18.3741 18.7666 18.7953 18.1048 18.6578 17.2968Z" fill="#FF007A"/>
<path d="M19.4398 18.6807C19.2163 18.1907 19.1648 17.7266 19.2851 17.2882C19.3023 17.2452 19.3195 17.2022 19.3367 17.2022C19.3539 17.2022 19.4054 17.228 19.457 17.2624C19.5602 17.3312 19.775 17.4515 20.3252 17.7523C21.0214 18.1305 21.4168 18.4228 21.6918 18.758C21.9325 19.0503 22.0786 19.3855 22.1474 19.7981C22.1904 20.0301 22.1646 20.5889 22.1044 20.8209C21.9153 21.5516 21.4855 22.136 20.8581 22.4713C20.7635 22.5228 20.6862 22.5572 20.6776 22.5572C20.669 22.5572 20.7034 22.4713 20.7549 22.3681C20.9612 21.9298 20.987 21.5086 20.8323 21.0358C20.7377 20.7436 20.54 20.3912 20.1446 19.7981C19.6719 19.1104 19.5602 18.9299 19.4398 18.6807Z" fill="#FF007A"/>
<path d="M13.0362 21.3109C13.6723 20.778 14.4545 20.3998 15.1765 20.2794C15.4859 20.2279 16.0017 20.245 16.2853 20.3224C16.7409 20.4427 17.1535 20.7006 17.3683 21.0186C17.5746 21.3281 17.6692 21.5945 17.7637 22.1876C17.7981 22.4197 17.8411 22.6604 17.8497 22.712C17.9185 23.0214 18.056 23.2621 18.2279 23.391C18.4944 23.5887 18.9585 23.5973 19.4141 23.4254C19.4914 23.3996 19.5602 23.3738 19.5602 23.3824C19.5774 23.3996 19.3453 23.5543 19.1906 23.6317C18.9757 23.7434 18.8038 23.7778 18.5717 23.7778C18.1591 23.7778 17.8067 23.5629 17.5231 23.1331C17.4629 23.0472 17.3426 22.7979 17.2394 22.5658C16.9386 21.8696 16.7839 21.6633 16.4314 21.4312C16.122 21.2335 15.7266 21.1905 15.4258 21.3367C15.0304 21.5258 14.9272 22.0329 15.2023 22.3423C15.314 22.4713 15.5203 22.5744 15.6922 22.6002C16.0103 22.6432 16.2853 22.3939 16.2853 22.0759C16.2853 21.8696 16.208 21.7493 16.0017 21.6547C15.7266 21.5344 15.4258 21.6719 15.4344 21.9384C15.4344 22.0501 15.4859 22.1189 15.5977 22.1704C15.6664 22.2048 15.6664 22.2048 15.6149 22.1962C15.3656 22.1446 15.3054 21.8352 15.5031 21.6375C15.7438 21.3968 16.2509 21.5 16.4228 21.8352C16.4916 21.9727 16.5002 22.2478 16.44 22.4197C16.2939 22.7979 15.8813 22.9956 15.4601 22.8839C15.1765 22.8065 15.0562 22.7291 14.7123 22.3767C14.1107 21.7579 13.8786 21.6375 13.019 21.5086L12.8557 21.4828L13.0362 21.3109Z" fill="#FF007A"/>
<path fill-rule="evenodd" clip-rule="evenodd" d="M8.51504 7.48071C10.5178 9.91324 13.6036 13.6953 13.7583 13.9015C13.8872 14.0735 13.8357 14.2368 13.6208 14.3571C13.5004 14.4259 13.2512 14.4946 13.1308 14.4946C12.9933 14.4946 12.83 14.4259 12.7182 14.3141C12.6409 14.2368 12.3057 13.7468 11.5493 12.5692C10.9734 11.6667 10.4834 10.9189 10.4748 10.9103C10.4404 10.8931 10.4404 10.8931 11.4891 12.7669C12.1509 13.9445 12.3658 14.3657 12.3658 14.4173C12.3658 14.529 12.3314 14.5892 12.1939 14.7439C11.9618 15.0018 11.8587 15.294 11.7813 15.9043C11.6954 16.5833 11.4633 17.0647 10.8014 17.8813C10.4146 18.3626 10.3545 18.4486 10.2599 18.6463C10.1396 18.8869 10.1052 19.0245 10.088 19.3339C10.0708 19.6605 10.1052 19.8668 10.1998 20.1763C10.2857 20.4513 10.3803 20.6318 10.6123 20.9842C10.81 21.2937 10.9304 21.5258 10.9304 21.6117C10.9304 21.6805 10.9476 21.6805 11.257 21.6117C11.9962 21.4398 12.6065 21.1476 12.9417 20.7865C13.148 20.5631 13.1996 20.4427 13.1996 20.1333C13.1996 19.9356 13.191 19.8926 13.1394 19.7723C13.0535 19.5832 12.8901 19.4285 12.5377 19.1878C12.0736 18.8697 11.8759 18.6119 11.8243 18.2681C11.7813 17.9758 11.8329 17.7781 12.0908 17.2366C12.3572 16.6779 12.426 16.4458 12.469 15.8785C12.4948 15.5175 12.5377 15.3714 12.6409 15.2596C12.7526 15.1393 12.8472 15.0963 13.1136 15.0619C13.552 15.0018 13.8357 14.89 14.0591 14.6751C14.2568 14.4946 14.3428 14.3141 14.3514 14.0477L14.36 13.85L14.2482 13.7296C13.8442 13.2655 8.24858 7.11111 8.22279 7.11111C8.2142 7.11111 8.35173 7.27442 8.51504 7.48071ZM11.1538 19.7035C11.2484 19.5402 11.1968 19.3339 11.0421 19.2308C10.8959 19.1362 10.6725 19.1792 10.6725 19.3081C10.6725 19.3425 10.6896 19.3769 10.7412 19.3941C10.8186 19.4371 10.8272 19.48 10.767 19.5746C10.7068 19.6691 10.7068 19.7551 10.7842 19.8153C10.9045 19.9098 11.0678 19.8582 11.1538 19.7035Z" fill="#FF007A"/>
<path fill-rule="evenodd" clip-rule="evenodd" d="M14.635 15.1823C14.4287 15.2424 14.231 15.4659 14.1708 15.6894C14.1365 15.8269 14.1537 16.0762 14.2138 16.1536C14.3084 16.2739 14.3943 16.3083 14.635 16.3083C15.1078 16.3083 15.5117 16.102 15.5547 15.8527C15.5977 15.6464 15.4172 15.3628 15.1679 15.2339C15.039 15.1651 14.7725 15.1393 14.635 15.1823ZM15.1852 15.6121C15.2539 15.5089 15.2281 15.3972 15.0992 15.3198C14.8671 15.1737 14.5147 15.294 14.5147 15.5175C14.5147 15.6292 14.6952 15.7496 14.8671 15.7496C14.9789 15.7496 15.1336 15.6808 15.1852 15.6121Z" fill="#FF007A"/>
<defs>
<linearGradient id="paint0_linear_2_553" x1="2.66675" y1="2.66666" x2="2.66675" y2="29.3333" gradientUnits="userSpaceOnUse">
<stop stop-color="#FEF3F9"/>
<stop offset="1" stop-color="#FDE5F2"/>
</linearGradient>
</defs>
</svg>
