<svg width="32" height="32" viewBox="0 0 32 32" fill="none" xmlns="http://www.w3.org/2000/svg">
<g clip-path="url(#clip0_2_614)">
<path d="M15.7148 20.9681C19.3891 20.4522 23.1573 20.1942 26.8708 20.3896C27.0663 20.3974 27.7073 20.46 28.5438 20.546C28.7627 19.9362 28.9426 19.3108 29.0755 18.6619C24.6349 18.6932 20.2178 17.8176 15.7226 18.4039C12.0482 18.9199 8.27999 19.1779 4.56651 18.9824C4.37107 18.9746 3.77691 18.9199 2.97949 18.8339C3.12021 19.4828 3.30784 20.116 3.54238 20.718C7.57638 20.8274 11.6104 21.4998 15.7148 20.9681Z" fill="#65AA8B"/>
<path d="M26.3081 24.4472C26.7225 23.9391 27.0977 23.4074 27.4417 22.8446C26.9961 22.8758 26.5427 22.8993 26.097 22.9149C22.321 23.0635 18.545 22.6726 14.8081 22.18C11.2822 21.7579 7.96746 22.6882 4.49634 22.7273C4.80905 23.2589 5.15304 23.7592 5.52829 24.2439C9.24177 24.111 12.9474 24.5019 16.6296 24.9788C19.9366 25.3775 23.0637 24.5801 26.3081 24.4472Z" fill="#65AA8B"/>
<path d="M15.7146 26.1907C13.2442 26.5347 10.7346 26.7692 8.2251 26.8239C10.4141 28.4031 13.1034 29.3256 16.0039 29.3256C19.2404 29.3256 22.2112 28.1686 24.5175 26.2532C21.5936 26.05 18.6697 25.8076 15.7146 26.1907Z" fill="#65AA8B"/>
<path d="M16.2776 2.66667L16.8717 10.0233C17.5988 10.1327 18.2868 10.3672 18.9044 10.7112L23.0635 4.69149C21.0934 3.44846 18.7715 2.7214 16.2776 2.66667Z" fill="#F9CB64"/>
<path d="M13.088 10.7112C13.7057 10.3672 14.3936 10.1327 15.1207 10.0233L15.7227 2.66667C13.2288 2.7214 10.9069 3.44846 8.93677 4.69149L13.088 10.7112Z" fill="#F9CB64"/>
<path d="M20.2803 11.7433C20.7963 12.2593 21.2184 12.8769 21.5155 13.5492L28.1138 10.4221C27.0975 8.20965 25.487 6.32555 23.4934 4.96524L20.2803 11.7433Z" fill="#F9CB64"/>
<path d="M9.99989 15.3708L3.64398 10.985C3.01073 12.5251 2.66675 14.2216 2.66675 15.9962C2.66675 16.2073 2.67457 16.4184 2.68238 16.6295C3.5658 16.5513 4.44922 16.4966 5.32482 16.4653C6.88057 16.4027 8.43632 16.434 9.98425 16.5278C9.96861 16.3558 9.9608 16.176 9.9608 16.004C9.96861 15.7851 9.97643 15.5741 9.99989 15.3708Z" fill="#F9CB64"/>
<path d="M10.4845 13.5492C10.7816 12.8691 11.2037 12.2593 11.7197 11.7433L8.50658 4.96524C6.51303 6.32555 4.90255 8.20965 3.88623 10.4221L10.4845 13.5492Z" fill="#F9CB64"/>
<path d="M22.0003 15.3706C22.0237 15.5739 22.0316 15.7849 22.0316 15.996C22.0316 16.3635 22.0003 16.7231 21.9299 17.0749C23.8062 16.8716 25.6747 16.6058 27.6057 16.6527C28.0278 16.6605 28.6298 16.6605 29.31 16.6684C29.3178 16.4495 29.3256 16.2227 29.3256 15.996C29.3256 14.2214 28.9816 12.5249 28.3484 10.977L22.0003 15.3706Z" fill="#F9CB64"/>
</g>
<defs>
<clipPath id="clip0_2_614">
<rect width="26.6667" height="26.6667" fill="white" transform="translate(2.66675 2.66667)"/>
</clipPath>
</defs>
</svg>
