<svg width="32" height="32" viewBox="0 0 32 32" fill="none" xmlns="http://www.w3.org/2000/svg">
<mask id="mask0_2_540" style="mask-type:luminance" maskUnits="userSpaceOnUse" x="1" y="1" width="30" height="30">
<path fill-rule="evenodd" clip-rule="evenodd" d="M15.9999 30.6667C24.1001 30.6667 30.6666 24.1002 30.6666 16C30.6666 7.89982 24.1001 1.33333 15.9999 1.33333C7.89974 1.33333 1.33325 7.89982 1.33325 16C1.33325 24.1002 7.89974 30.6667 15.9999 30.6667Z" fill="white"/>
</mask>
<g mask="url(#mask0_2_540)">
<path fill-rule="evenodd" clip-rule="evenodd" d="M7.4165 6.83334C6.99984 4.66667 8.6665 2.66667 10.8332 2.66667C12.7498 2.66667 14.3332 4.25 14.3332 6.16667V10.5C14.8332 10.5 15.3332 10.4167 15.8332 10.4167C16.3332 10.4167 16.7498 10.4167 17.2498 10.5V6.16667C17.2498 4.25 18.8332 2.66667 20.7498 2.66667C22.9165 2.66667 24.5832 4.66667 24.2498 6.83334L23.3332 11.9167C26.5832 13.3333 29.0832 15.8333 29.0832 18.9167V20.8333C29.0832 23.4167 27.4165 25.5833 24.9998 27C22.5832 28.5 19.4165 29.3333 15.8332 29.3333C12.2498 29.3333 9.08317 28.5 6.6665 27C4.33317 25.5833 2.6665 23.4167 2.6665 20.8333V18.9167C2.6665 15.8333 5.08317 13.3333 8.33317 11.9167L7.4165 6.83334ZM22.0832 12.5833L23.1665 6.58334C23.4165 5.08334 22.3332 3.66667 20.7498 3.66667C19.4165 3.66667 18.3332 4.75 18.3332 6.08334V11.5833C17.9998 11.5 17.5832 11.5 17.2498 11.5C16.7498 11.5 16.3332 11.4167 15.8332 11.4167C15.3332 11.4167 14.8332 11.4167 14.3332 11.5C13.9998 11.5 13.5832 11.5833 13.2498 11.5833V6.16667C13.2498 4.83334 12.1665 3.75001 10.8332 3.75001C9.33317 3.75001 8.1665 5.16667 8.49984 6.66667L9.58317 12.6667C6.08317 14 3.74984 16.3333 3.74984 19V20.9167C3.74984 25 9.1665 28.3333 15.8332 28.3333C22.4998 28.3333 27.9165 25 27.9165 20.9167V19C27.9998 16.25 25.6665 13.9167 22.0832 12.5833Z" fill="#633001"/>
<path d="M27.9997 20.8333C27.9997 24.9166 22.583 28.2499 15.9163 28.2499C9.24967 28.2499 3.83301 24.9166 3.83301 20.8333V18.9166H28.083V20.8333H27.9997Z" fill="#FEDC90"/>
<path fill-rule="evenodd" clip-rule="evenodd" d="M8.49967 6.66665C8.16634 5.16665 9.33301 3.74998 10.833 3.74998C12.1663 3.74998 13.2497 4.83332 13.2497 6.16665V11.6667C14.083 11.5833 14.9163 11.5 15.833 11.5C16.6663 11.5 17.4997 11.5833 18.333 11.6667V6.16665C18.333 4.83332 19.4163 3.74998 20.7497 3.74998C22.2497 3.74998 23.4163 5.16665 23.1663 6.66665L22.083 12.6666C25.583 14 27.9997 16.3333 27.9997 19C27.9997 23.0833 22.583 26.4166 15.9163 26.4166C9.24967 26.4166 3.83301 23.0833 3.83301 19C3.83301 16.3333 6.16634 14 9.66634 12.6666L8.49967 6.66665Z" fill="#D1884F"/>
<path d="M12.4999 18.4166C12.4999 19.5 11.9166 20.4166 11.1666 20.4166C10.4166 20.4166 9.83325 19.5 9.83325 18.4166C9.83325 17.3333 10.4166 16.4166 11.1666 16.4166C11.9166 16.4166 12.4999 17.3333 12.4999 18.4166Z" fill="#633001"/>
<path d="M21.7497 18.4166C21.7497 19.5 21.1663 20.4166 20.4163 20.4166C19.6663 20.4166 19.083 19.5 19.083 18.4166C19.083 17.3333 19.6663 16.4166 20.4163 16.4166C21.1663 16.4166 21.7497 17.3333 21.7497 18.4166Z" fill="#633001"/>
</g>
</svg>
