<svg width="32" height="32" viewBox="0 0 32 32" fill="none" xmlns="http://www.w3.org/2000/svg">
<g clip-path="url(#clip0_2_498)">
<path d="M16.8562 5.33334H21.4181L29.3335 16.3203H24.7716L16.8562 5.33334Z" fill="#FCB12E"/>
<path d="M8.94067 16.3203H13.5026L21.418 5.33334H16.8561L8.94067 16.3203Z" fill="#B77C00"/>
<path d="M13.5026 16.3202H8.94067L2.66675 7.62936H7.22868L13.5026 16.3202Z" fill="#FCB12E"/>
<path d="M7.22868 7.62936H2.66675V25.0211H7.22868V7.62936Z" fill="#B77C00"/>
<path d="M16.8562 27.3171H21.4181L29.3335 16.3201H24.7716L16.8562 27.3171Z" fill="#B77C00"/>
<path d="M8.94067 16.3201H13.5026L21.418 27.3171H16.8561L8.94067 16.3201Z" fill="#FCB12E"/>
<path d="M2.66675 25.021H7.22868L13.5026 16.3201H8.94067L2.66675 25.021Z" fill="#B77C00"/>
</g>
<defs>
<clipPath id="clip0_2_498">
<rect width="26.6667" height="21.9839" fill="white" transform="translate(2.66675 5.33334)"/>
</clipPath>
</defs>
</svg>
