<svg width="32" height="32" viewBox="0 0 32 32" fill="none" xmlns="http://www.w3.org/2000/svg">
<g clip-path="url(#clip0_2_527)">
<path fill-rule="evenodd" clip-rule="evenodd" d="M15.3635 9.36795C15.6911 9.36795 15.9575 9.63429 15.9575 9.9619C15.9575 10.2895 15.6911 10.5559 15.3635 10.5559C15.0359 10.5559 14.7696 10.2895 14.7696 9.9619C14.7696 9.63163 15.0359 9.36795 15.3635 9.36795ZM13.6642 7.01344C20.5626 4.24609 21.4708 14.3833 22.3258 18.4717C23.1488 22.4083 24.6936 21.9981 26.2198 21.3802L27.5116 20.0884C29.7915 17.8085 29.7915 14.077 27.5116 11.797L20.0885 4.3766C17.8086 2.09667 14.0771 2.09667 11.7971 4.3766L4.3767 11.7997C2.09677 14.0796 2.09677 17.8111 4.3767 20.0911L11.584 27.2984C10.4308 25.5033 10.5346 23.3538 10.4441 20.5519C10.3029 16.2583 8.14817 25.8921 7.72468 19.3719C7.56221 16.8763 12.6015 13.7014 12.0502 15.2755C10.1351 20.7516 13.4139 34.1915 20.0912 27.5142L23.9186 23.6868C22.4324 24.3766 19.6597 24.6749 19.8941 19.332C20.0992 14.6416 17.0761 21.9688 16.6393 20.8395C14.1756 14.4898 19.8435 17.1639 18.8287 12.0341C18.0403 8.04687 13.3659 7.49553 13.0729 11.2883C13.0543 11.544 10.9102 11.7198 10.2976 11.7198C9.56247 11.7198 12.0635 9.44253 12.0635 9.43454C12.154 8.07617 12.9424 7.30109 13.6642 7.01344Z" fill="#FF3B4A"/>
</g>
<defs>
<clipPath id="clip0_2_527">
<rect width="26.5548" height="26.6667" fill="white" transform="translate(2.66675 2.66666)"/>
</clipPath>
</defs>
</svg>
