<svg width="24" height="24" viewBox="0 0 24 24" fill="none" xmlns="http://www.w3.org/2000/svg">
<path fill-rule="evenodd" clip-rule="evenodd" d="M10.2093 5.24996H11.3781C11.3998 5.24834 11.4171 5.2311 11.4187 5.20942V4.04054C11.4171 4.01885 11.3998 4.00161 11.3781 4H10.2093C10.1876 4.00161 10.1703 4.01885 10.1687 4.04054V5.20942C10.1683 5.22028 10.1725 5.23082 10.1802 5.2385C10.1879 5.24619 10.1984 5.25034 10.2093 5.24996ZM11.3781 7.39853H10.2092C10.1875 7.39691 10.1703 7.37967 10.1687 7.35799V6.18911C10.1703 6.16742 10.1875 6.15018 10.2092 6.14857H11.3781C11.3998 6.15018 11.417 6.16742 11.4186 6.18911V7.35799C11.417 7.37967 11.3998 7.39691 11.3781 7.39853ZM11.3781 9.54034H7.76336C7.7525 9.54073 7.74196 9.53658 7.73428 9.52889C7.72659 9.5212 7.72244 9.51067 7.72282 9.4998V8.33092C7.72444 8.30924 7.74168 8.292 7.76336 8.29039H11.3781C11.3998 8.292 11.417 8.30924 11.4186 8.33092V9.4998C11.417 9.52149 11.3998 9.53873 11.3781 9.54034ZM5.20942 12.5808H4.04054C4.01885 12.5824 4.00161 12.5996 4 12.6213V13.7902C4.00161 13.8119 4.01885 13.8291 4.04054 13.8307H5.20942C5.2311 13.8291 5.24834 13.8119 5.24996 13.7902V12.6213C5.24834 12.5996 5.2311 12.5824 5.20942 12.5808ZM8.33091 12.5808H9.49979C9.52147 12.5824 9.53871 12.5996 9.54033 12.6213V16.2361C9.53871 16.2578 9.52147 16.275 9.49979 16.2766H8.33091C8.30922 16.275 8.29198 16.2578 8.29037 16.2361V12.6213C8.29198 12.5996 8.30922 12.5824 8.33091 12.5808ZM16.6482 11.4119H17.8171C17.8388 11.4103 17.856 11.393 17.8576 11.3714V10.2025C17.856 10.1808 17.8388 10.1636 17.8171 10.1619H16.6482C16.6265 10.1636 16.6093 10.1808 16.6077 10.2025V11.3714C16.6061 11.3825 16.6098 11.3938 16.6178 11.4018C16.6258 11.4098 16.637 11.4135 16.6482 11.4119ZM15.6685 11.4119H14.4996C14.4888 11.4123 14.4782 11.4081 14.4706 11.4005C14.4629 11.3928 14.4587 11.3822 14.4591 11.3714V7.75663C14.4607 7.73494 14.478 7.7177 14.4996 7.71609H15.6685C15.6902 7.7177 15.7074 7.73494 15.7091 7.75663V11.3714C15.7074 11.3931 15.6902 11.4103 15.6685 11.4119ZM6.18914 12.5808H7.35802C7.37871 12.5844 7.39491 12.6006 7.39856 12.6213V13.7902C7.39695 13.8119 7.37971 13.8291 7.35802 13.8307H6.18914C6.16746 13.8291 6.15022 13.8119 6.1486 13.7902V12.6213C6.15022 12.5996 6.16746 12.5824 6.18914 12.5808ZM16.2429 14.4591H12.6281C12.6064 14.4607 12.5892 14.478 12.5876 14.4996V15.6685C12.5892 15.6902 12.6064 15.7074 12.6281 15.7091H16.2429C16.2645 15.7074 16.2818 15.6902 16.2834 15.6685V14.4996C16.2821 14.4778 16.2647 14.4604 16.2429 14.4591ZM13.5875 12.3308H18.709C18.7198 12.3304 18.7304 12.3346 18.738 12.3423C18.7457 12.3499 18.7499 12.3605 18.7495 12.3713V13.5064C18.7479 13.5281 18.7306 13.5454 18.709 13.547H13.5875C13.5658 13.5454 13.5486 13.5281 13.547 13.5064V12.3713C13.5486 12.3497 13.5658 12.3324 13.5875 12.3308ZM13.7902 16.6009H12.6213C12.5997 16.6025 12.5824 16.6198 12.5808 16.6415V17.8103C12.5824 17.832 12.5997 17.8493 12.6213 17.8509H13.7902C13.8119 17.8493 13.8292 17.832 13.8308 17.8103V16.6415C13.8311 16.6306 13.827 16.6201 13.8193 16.6124C13.8116 16.6047 13.8011 16.6005 13.7902 16.6009ZM10.4119 10.4525C10.4336 10.4541 10.4508 10.4713 10.4525 10.493V11.6281C10.4508 11.6498 10.4336 11.667 10.4119 11.6687H5.29046C5.26878 11.667 5.25154 11.6498 5.24993 11.6281V10.493C5.25154 10.4713 5.26878 10.4541 5.29046 10.4525H10.4119ZM19.9589 10.1687H18.79C18.7683 10.1703 18.7511 10.1876 18.7495 10.2093V11.3781C18.7511 11.3998 18.7683 11.4171 18.79 11.4187H19.9589C19.9806 11.4171 19.9978 11.3998 19.9994 11.3781V10.2093C20.001 10.1981 19.9973 10.1868 19.9893 10.1788C19.9813 10.1709 19.9701 10.1671 19.9589 10.1687ZM10.4931 13.547H11.6281C11.6498 13.5486 11.6671 13.5658 11.6687 13.5875V18.709C11.6671 18.7306 11.6498 18.7479 11.6281 18.7495H10.4931C10.4714 18.7479 10.4541 18.7306 10.4525 18.709V13.5875C10.4541 13.5658 10.4714 13.5486 10.4931 13.547ZM13.547 10.4187V5.2905C13.5454 5.26881 13.5281 5.25157 13.5065 5.24996H12.3714C12.3497 5.25157 12.3324 5.26881 12.3308 5.2905V10.4187C12.3324 10.4404 12.3497 10.4576 12.3714 10.4592H13.5065C13.5281 10.4576 13.5454 10.4404 13.547 10.4187ZM12.6213 18.7495H13.7902C13.8014 18.7479 13.8127 18.7517 13.8206 18.7596C13.8286 18.7676 13.8324 18.7789 13.8308 18.79V19.9589C13.8292 19.9806 13.8119 19.9978 13.7902 19.9995H12.6213C12.5997 19.9978 12.5824 19.9806 12.5808 19.9589V18.79C12.5824 18.7684 12.5997 18.7511 12.6213 18.7495Z" fill="#149DD9"/>
</svg>
