<svg width="24" height="24" viewBox="0 0 24 24" fill="none" xmlns="http://www.w3.org/2000/svg">
<circle cx="12" cy="12" r="12" fill="#EDF0F4"/>
<path d="M13.7988 4.62909C13.0482 4.44941 12.2544 4.41158 11.8247 4.40213C11.6267 4.3974 11.5085 4.40213 11.5085 4.40213H7.08269C5.6092 4.40213 4.3999 5.60965 4.3999 7.0926V11.7389C4.3999 11.7814 4.3999 11.8192 4.40463 11.8624C4.40463 11.9049 4.3999 11.9428 4.3999 11.9853C4.3999 16.1723 7.7819 19.5638 11.9571 19.5638C16.1323 19.5638 19.5143 16.1723 19.5143 11.9853C19.519 8.4331 17.0815 5.45361 13.7988 4.62909Z" fill="#4C66FF"/>
<path fill-rule="evenodd" clip-rule="evenodd" d="M9.20817 7.63698C9.20817 7.18246 8.83994 6.81305 8.38661 6.81305H8.38602C7.93268 6.81305 7.56445 7.18187 7.56445 7.63698V10.2187C7.56461 10.439 7.65235 10.6502 7.80834 10.8057C7.96433 10.9613 8.17577 11.0484 8.39606 11.0479C8.73904 11.048 9.04673 10.8371 9.17034 10.5172C9.79872 9.23132 11.2312 8.54907 12.6256 8.87155C14.02 9.19404 15.0074 10.436 15.0074 11.8671C15.0074 13.2983 14.02 14.5402 12.6256 14.8627C11.2312 15.1852 9.79872 14.503 9.17034 13.2171C9.16746 13.2103 9.16458 13.2033 9.16166 13.1961C9.1502 13.1682 9.13813 13.1389 9.12306 13.1125C8.98121 12.8572 8.70755 12.6863 8.39606 12.6863C7.93741 12.6863 7.56445 13.0557 7.56445 13.5156C7.56805 13.6847 7.62061 13.8492 7.71576 13.989C8.60296 15.753 10.4939 16.7788 12.4563 16.5607C14.4187 16.3426 16.0383 14.9266 16.5166 13.0109C16.9948 11.0952 16.2308 9.08422 14.6012 7.96936C12.9715 6.85449 10.8203 6.87115 9.20817 8.01111V7.63698ZM13.2091 11.8665C13.2091 11.1661 12.6422 10.6017 11.9477 10.6017C11.2485 10.6017 10.6864 11.1709 10.6864 11.8665C10.6887 12.5628 11.2515 13.1272 11.9477 13.1314C12.647 13.1314 13.2091 12.5634 13.2091 11.8665Z" fill="white"/>
</svg>
