<svg width="24" height="24" viewBox="0 0 24 24" fill="none" xmlns="http://www.w3.org/2000/svg">
<path d="M12 22C17.5228 22 22 17.5228 22 12C22 6.47715 17.5228 2 12 2C6.47715 2 2 6.47715 2 12C2 17.5228 6.47715 22 12 22Z" fill="#E84142"/>
<path d="M15.5275 12.2598C15.8739 11.6614 16.433 11.6614 16.7794 12.2598L18.9369 16.0472C19.2834 16.6456 18.9999 17.1338 18.307 17.1338H13.9605C13.2755 17.1338 12.992 16.6456 13.3306 16.0472L15.5275 12.2598ZM11.3542 4.96847C11.7007 4.37005 12.2519 4.37005 12.5983 4.96847L13.0787 5.83461L14.2125 7.82674C14.4881 8.39367 14.4881 9.06296 14.2125 9.62989L10.4094 16.2204C10.0629 16.7559 9.4881 17.0945 8.85031 17.1338H5.69283C4.99991 17.1338 4.71645 16.6535 5.0629 16.0472L11.3542 4.96847Z" fill="white"/>
</svg>
