<svg width="24" height="24" viewBox="0 0 24 24" fill="none" xmlns="http://www.w3.org/2000/svg">
<path d="M12 0C11.8035 0 11.6072 0.00485542 11.4112 0.0145663C11.215 0.024277 11.0192 0.0385877 10.8237 0.0580093C10.6285 0.0771754 10.4335 0.101197 10.2393 0.130074C10.0451 0.158695 9.85161 0.192427 9.65893 0.230759C9.46625 0.269092 9.27484 0.312024 9.0842 0.359811C8.89382 0.407343 8.70446 0.45973 8.51663 0.516717C8.3288 0.573704 8.14225 0.635291 7.95724 0.701478C7.77248 0.767665 7.58925 0.838451 7.40781 0.913582C7.22637 0.988713 7.04698 1.06819 6.86937 1.15226C6.69177 1.23608 6.51646 1.3245 6.3432 1.41701C6.17019 1.50952 5.99923 1.60637 5.83083 1.70731C5.66242 1.80825 5.49657 1.91328 5.33328 2.0224C5.16998 2.13152 5.0095 2.24473 4.85157 2.36151C4.6939 2.47856 4.53904 2.59943 4.38724 2.72388C4.23544 2.84859 4.08697 2.97687 3.94131 3.10874C3.7959 3.2406 3.65356 3.37604 3.5148 3.5148C3.37604 3.65356 3.2406 3.7959 3.10874 3.94131C2.97687 4.08697 2.84859 4.23544 2.72388 4.38724C2.59943 4.53904 2.47856 4.6939 2.36151 4.85157C2.24473 5.0095 2.13152 5.16998 2.0224 5.33328C1.91328 5.49657 1.80825 5.66242 1.70731 5.83083C1.60637 5.99923 1.50952 6.17019 1.41701 6.3432C1.3245 6.51646 1.23608 6.69177 1.15226 6.86937C1.06819 7.04698 0.988713 7.22637 0.913582 7.40781C0.838451 7.58925 0.767665 7.77248 0.701478 7.95724C0.635291 8.14225 0.573704 8.3288 0.516717 8.51663C0.45973 8.70446 0.407343 8.89382 0.359811 9.0842C0.312024 9.27484 0.269092 9.46625 0.230759 9.65893C0.192427 9.85161 0.158695 10.0451 0.130074 10.2393C0.101197 10.4335 0.0771754 10.6285 0.0580093 10.8237C0.0385877 11.0192 0.024277 11.215 0.0145663 11.4112C0.00485542 11.6072 0 11.8035 0 12C0 12.1963 0.00485542 12.3928 0.0145663 12.5888C0.024277 12.785 0.0385877 12.9808 0.0580093 13.1763C0.0771754 13.3715 0.101197 13.5665 0.130074 13.7607C0.158695 13.9549 0.192427 14.1484 0.230759 14.3411C0.269092 14.5338 0.312024 14.7252 0.359811 14.9158C0.407343 15.1062 0.45973 15.2955 0.516717 15.4834C0.573704 15.6712 0.635291 15.8577 0.701478 16.0428C0.767665 16.2275 0.838451 16.4108 0.913582 16.5922C0.988713 16.7736 1.06819 16.953 1.15226 17.1306C1.23608 17.3082 1.3245 17.4835 1.41701 17.6568C1.50952 17.8298 1.60637 18.0008 1.70731 18.1692C1.80825 18.3376 1.91328 18.5034 2.0224 18.6667C2.13152 18.83 2.24473 18.9905 2.36151 19.1484C2.47856 19.3061 2.59943 19.461 2.72388 19.6128C2.84859 19.7646 2.97687 19.913 3.10874 20.0587C3.2406 20.2041 3.37604 20.3464 3.5148 20.4852C3.65356 20.624 3.7959 20.7594 3.94131 20.8913C4.08697 21.0231 4.23544 21.1514 4.38724 21.2761C4.53904 21.4006 4.6939 21.5214 4.85157 21.6385C5.0095 21.7553 5.16998 21.8685 5.33328 21.9776C5.49657 22.0867 5.66242 22.1917 5.83083 22.2927C5.99923 22.3936 6.17019 22.4905 6.3432 22.583C6.51646 22.6755 6.69177 22.7639 6.86937 22.8477C7.04698 22.9318 7.22637 23.0113 7.40781 23.0864C7.58925 23.1615 7.77248 23.2323 7.95724 23.2985C8.14225 23.3647 8.3288 23.426 8.51663 23.4833C8.70446 23.5403 8.89382 23.5927 9.0842 23.6402C9.27484 23.688 9.46625 23.7309 9.65893 23.7692C9.85161 23.8076 10.0451 23.8413 10.2393 23.8699C10.4335 23.8988 10.6285 23.9228 10.8237 23.942C11.0192 23.9614 11.215 23.9757 11.4112 23.9854C11.6072 23.9951 11.8035 24 12 24C12.1963 24 12.3928 23.9951 12.5888 23.9854C12.785 23.9757 12.9808 23.9614 13.1763 23.942C13.3715 23.9228 13.5665 23.8988 13.7607 23.8699C13.9549 23.8413 14.1484 23.8076 14.3411 23.7692C14.5338 23.7309 14.7252 23.688 14.9158 23.6402C15.1062 23.5927 15.2955 23.5403 15.4834 23.4833C15.6712 23.426 15.8577 23.3645 16.0428 23.2985C16.2275 23.2323 16.4108 23.1615 16.5922 23.0864C16.7736 23.0113 16.953 22.9318 17.1306 22.8477C17.3082 22.7639 17.4835 22.6755 17.6568 22.583C17.8298 22.4905 18.0008 22.3936 18.1692 22.2927C18.3376 22.1917 18.5034 22.0867 18.6667 21.9776C18.83 21.8685 18.9905 21.7553 19.1484 21.6385C19.3061 21.5214 19.461 21.4006 19.6128 21.2761C19.7646 21.1514 19.913 21.0231 20.0587 20.8913C20.2041 20.7594 20.3464 20.624 20.4852 20.4852C20.624 20.3464 20.7594 20.2041 20.8913 20.0587C21.0231 19.913 21.1514 19.7646 21.2761 19.6128C21.4006 19.461 21.5214 19.3061 21.6385 19.1484C21.7553 18.9905 21.8685 18.83 21.9776 18.6667C22.0867 18.5034 22.1917 18.3376 22.2927 18.1692C22.3936 18.0008 22.4905 17.8298 22.583 17.6568C22.6755 17.4835 22.7639 17.3082 22.8477 17.1306C22.9318 16.953 23.0113 16.7736 23.0864 16.5922C23.1615 16.4108 23.2323 16.2275 23.2985 16.0428C23.3647 15.8577 23.426 15.6712 23.4833 15.4834C23.5403 15.2955 23.5927 15.1062 23.6402 14.9158C23.688 14.7252 23.7309 14.5338 23.7692 14.3411C23.8076 14.1484 23.8413 13.9549 23.8699 13.7607C23.8988 13.5665 23.9228 13.3715 23.942 13.1763C23.9614 12.9808 23.9757 12.785 23.9854 12.5888C23.9951 12.3928 24 12.1963 24 12C24 11.8035 23.9951 11.6072 23.9854 11.4112C23.9757 11.215 23.9614 11.0192 23.942 10.8237C23.9228 10.6285 23.8988 10.4335 23.8699 10.2393C23.8413 10.0451 23.8076 9.85161 23.7692 9.65893C23.7309 9.46625 23.688 9.27484 23.6402 9.0842C23.5927 8.89382 23.5403 8.70446 23.4833 8.51663C23.426 8.3288 23.3645 8.14225 23.2985 7.95724C23.2323 7.77248 23.1615 7.58925 23.0864 7.40781C23.0113 7.22637 22.9318 7.04698 22.8477 6.86937C22.7639 6.69177 22.6755 6.51646 22.583 6.3432C22.4905 6.17019 22.3936 5.99923 22.2927 5.83083C22.1917 5.66242 22.0867 5.49657 21.9776 5.33328C21.8685 5.16998 21.7553 5.0095 21.6385 4.85157C21.5214 4.6939 21.4006 4.53904 21.2761 4.38724C21.1514 4.23544 21.0231 4.08697 20.8913 3.94131C20.7594 3.7959 20.624 3.65356 20.4852 3.5148C20.3464 3.37604 20.2041 3.2406 20.0587 3.10874C19.913 2.97687 19.7646 2.84859 19.6128 2.72388C19.461 2.59943 19.3061 2.47856 19.1484 2.36151C18.9905 2.24473 18.83 2.13152 18.6667 2.0224C18.5034 1.91328 18.3376 1.80825 18.1692 1.70731C18.0008 1.60637 17.8298 1.50952 17.6568 1.41701C17.4835 1.3245 17.3082 1.23608 17.1306 1.15226C16.953 1.06819 16.7736 0.988713 16.5922 0.913582C16.4108 0.838451 16.2275 0.767665 16.0428 0.701478C15.8577 0.635291 15.6712 0.573704 15.4834 0.516717C15.2955 0.45973 15.1062 0.407343 14.9158 0.359811C14.7252 0.312024 14.5338 0.269092 14.3411 0.230759C14.1484 0.192427 13.9549 0.158695 13.7607 0.130074C13.5665 0.101197 13.3715 0.0771754 13.1763 0.0580093C12.9808 0.0385877 12.785 0.024277 12.5888 0.0145663C12.3928 0.00485542 12.1963 0 12 0Z" fill="#571AFF"/>
<mask id="mask0_2_363" style="mask-type:luminance" maskUnits="userSpaceOnUse" x="0" y="0" width="24" height="24">
<path fill-rule="evenodd" clip-rule="evenodd" d="M0.748779 0.799835H23.0734V23.1245H0.748779V0.799835Z" fill="white"/>
</mask>
<g mask="url(#mask0_2_363)">
<path fill-rule="evenodd" clip-rule="evenodd" d="M8.03063 0.876984C5.85081 1.63673 3.86802 3.07188 2.55143 4.84257C2.50032 4.91131 2.45228 4.97264 2.44462 4.97878C2.41063 5.00587 1.95013 5.70811 1.80166 5.95906C1.45335 6.5481 1.06696 7.38859 0.818822 8.09646L0.748291 8.29783L0.754169 12.0631L0.760046 15.8286L0.866865 16.0966C0.925641 16.2441 0.989783 16.4102 1.00946 16.4654C1.20725 17.0263 1.69893 17.9596 2.16914 18.6667C2.58414 19.2907 2.97258 19.7637 3.5519 20.3505C4.7379 21.5521 6.11734 22.4506 7.69356 23.0485L7.95345 23.1472H15.9797L16.2922 23.0266C17.4994 22.561 18.5186 21.9622 19.6212 21.0701C19.8885 20.8539 20.728 20.0267 20.9036 19.8064C20.9721 19.7203 21.0794 19.5897 21.1415 19.5159C21.3503 19.2687 21.7581 18.7083 21.9007 18.473C21.913 18.4525 22.0017 18.3066 22.0978 18.1489C22.1938 17.9913 22.385 17.6358 22.5225 17.3593C22.7732 16.8556 22.8018 16.7933 22.8951 16.5436C22.9224 16.47 22.9597 16.3762 22.9776 16.3358C23.1056 16.0458 23.0959 16.4007 23.0964 12.0194C23.0967 7.63366 23.1067 7.99219 22.9776 7.70061C22.9597 7.66024 22.9122 7.54141 22.8723 7.43689C22.73 7.06583 22.339 6.28795 22.063 5.82796C20.7273 3.60035 18.6251 1.87515 16.1116 0.943682L15.7244 0.800064L11.9855 0.801086L8.24631 0.801853L8.03063 0.876984ZM5.96577 1.89123C5.92769 1.92471 5.77692 2.01032 5.77692 1.99831C5.77692 1.99192 5.8196 1.961 5.87198 1.92982C5.96833 1.87181 6.0041 1.85724 5.96577 1.89123ZM5.08417 2.46317C5.08417 2.46853 5.05146 2.49434 5.01159 2.52092L4.93902 2.56896L5.00597 2.51121C5.07471 2.45218 5.08417 2.4463 5.08417 2.46317ZM4.7489 2.70775C4.7489 2.71235 4.70137 2.7535 4.64285 2.79898L4.5368 2.88178L4.63723 2.79055C4.73689 2.70034 4.7489 2.6914 4.7489 2.70775ZM4.10082 3.24211C4.10082 3.24543 4.04307 3.30318 3.97253 3.37039L3.84399 3.49254L3.96615 3.36426C4.07961 3.24466 4.10082 3.22549 4.10082 3.24211ZM20.1689 3.53723C20.2356 3.60495 20.2852 3.66015 20.2791 3.66015C20.2729 3.66015 20.2134 3.60495 20.1467 3.53723C20.0797 3.46976 20.0302 3.41431 20.0363 3.41431C20.0424 3.41431 20.1022 3.46976 20.1689 3.53723ZM20.4482 3.81656C20.5087 3.87815 20.5532 3.92849 20.5471 3.92849C20.5409 3.92849 20.4863 3.87815 20.4259 3.81656C20.3654 3.75523 20.3209 3.70489 20.327 3.70489C20.3332 3.70489 20.3876 3.75523 20.4482 3.81656ZM3.45274 3.88992C3.45274 3.89349 3.38502 3.96121 3.30197 4.04095L3.15119 4.18533L3.29583 4.03456C3.42999 3.89452 3.45274 3.87356 3.45274 3.88992ZM17.9078 3.94865C18.1357 4.05138 18.1961 4.25863 18.0803 4.54025C18.0504 4.61231 17.7872 5.11523 17.4951 5.6575C16.9186 6.72748 16.8626 6.84426 16.8621 6.97894C16.8611 7.19717 16.7348 6.99887 18.6972 9.86177C20.2512 12.129 20.1392 11.9314 20.1178 12.3626C20.0973 12.7829 19.6532 15.354 19.5742 15.5109C19.428 15.8015 19.416 15.805 17.789 16.0302C16.7852 16.1692 16.756 16.1845 16.6617 16.6192C16.5664 17.0582 16.6479 16.9926 13.8446 18.8905C13.0575 19.4233 13.474 19.2917 10.2779 20.0172C7.56349 20.6336 7.55531 20.6351 7.39917 20.6001C7.07335 20.527 7.04217 20.4757 6.61924 19.3035C6.45288 18.8427 6.08029 17.8101 5.79101 17.0089C5.50173 16.2078 5.24848 15.4938 5.22804 15.4222C5.18511 15.2722 5.14013 12.8772 5.15904 11.7613C5.17233 10.9829 5.19431 10.898 5.47464 10.5546C5.78973 10.1682 5.79024 10.1738 5.34304 9.2045C4.91704 8.28069 4.77367 7.87386 4.80179 7.66789C4.83475 7.42768 4.87768 7.3827 5.99136 6.41622C7.15384 5.40732 7.20444 5.36975 7.60259 5.21847L7.7324 5.16915L10.4701 5.15765L13.2075 5.1464L13.3355 5.08354C13.4955 5.00483 13.5474 4.94222 13.7557 4.57347C14.1576 3.86228 14.0692 3.88681 16.2023 3.89141L17.789 3.89473L17.9078 3.94865ZM14.8512 4.66802C14.5982 4.71172 14.521 4.7871 14.2672 5.2361C14.0401 5.63859 13.887 5.79243 13.6322 5.87548C13.5614 5.89848 12.9496 5.90717 10.7047 5.91662L7.86654 5.92838L7.72114 5.99738C7.55426 6.0766 7.51746 6.10624 6.61513 6.88898C5.4368 7.91066 5.48739 7.6845 6.12626 9.07391C6.69767 10.3166 6.69971 10.3586 6.21315 10.9006C6.13035 10.9928 6.03606 11.1185 6.0036 11.1801L5.94457 11.2918V13.2025C5.94457 14.9906 5.94712 15.1227 5.98571 15.2584C6.02174 15.3852 6.74469 17.4045 7.30638 18.9478C7.62735 19.8289 7.64422 19.8383 8.53684 19.6293C8.78268 19.5718 9.24522 19.4655 9.56491 19.3932C13.034 18.6092 12.7843 18.6769 13.1853 18.4121C13.7245 18.0559 15.6009 16.761 15.6848 16.6872C15.8228 16.5658 15.8912 16.414 15.9462 16.1084C16.0528 15.5145 16.088 15.493 17.218 15.3361C19.1114 15.0729 18.8781 15.2845 19.1653 13.5713C19.4117 12.105 19.4582 12.3265 18.6568 11.1576C18.3619 10.7276 17.6793 9.73195 17.1399 8.94537C15.7382 6.90125 15.8059 7.18439 16.4368 6.00683C17.0364 4.88804 17.0504 4.82876 16.7496 4.69127C16.6579 4.64936 15.0709 4.62994 14.8512 4.66802ZM20.7275 19.9352C20.7275 19.9383 20.5491 20.1169 20.3309 20.3318L19.9343 20.7226L20.325 20.326C20.6881 19.9575 20.7275 19.9191 20.7275 19.9352ZM3.66508 20.3762C3.8616 20.5728 4.01723 20.7338 4.01109 20.7338C4.00496 20.7338 3.83911 20.5728 3.64285 20.3762C3.44633 20.1795 3.29071 20.0187 3.29684 20.0187C3.30297 20.0187 3.46882 20.1795 3.66508 20.3762ZM6.22394 22.3105C6.22394 22.3166 6.19379 22.3059 6.15699 22.287C6.12019 22.2678 6.08978 22.2471 6.08978 22.241C6.08978 22.2348 6.12019 22.2456 6.15699 22.2645C6.19379 22.2837 6.22394 22.3044 6.22394 22.3105ZM6.52721 22.4715C6.51724 22.4818 6.29108 22.3691 6.29108 22.354C6.29108 22.3481 6.34602 22.3703 6.41323 22.4033C6.48044 22.4363 6.53181 22.4672 6.52721 22.4715Z" fill="#541BFC"/>
</g>
<path fill-rule="evenodd" clip-rule="evenodd" d="M5.87191 1.92989C5.81953 1.96106 5.77685 1.99198 5.77685 1.99837C5.77685 2.01038 5.92762 1.92478 5.9657 1.8913C6.00403 1.85731 5.96826 1.87188 5.87191 1.92989ZM5.0059 2.51127L4.93895 2.56903L5.01152 2.52099C5.05139 2.49441 5.0841 2.4686 5.0841 2.46323C5.0841 2.44637 5.07464 2.45224 5.0059 2.51127ZM4.63716 2.7906L4.53673 2.88183L4.64278 2.79903C4.7358 2.72645 4.7634 2.69911 4.74346 2.69937C4.7404 2.69937 4.69261 2.74051 4.63716 2.7906ZM3.96608 3.36428L3.84392 3.49256L3.97246 3.37041C4.09181 3.25695 4.11097 3.23574 4.09436 3.23574C4.09104 3.23574 4.03329 3.29349 3.96608 3.36428ZM20.1465 3.53729C20.2132 3.60501 20.2728 3.66021 20.2789 3.66021C20.285 3.66021 20.2355 3.60501 20.1688 3.53729C20.1021 3.46983 20.0423 3.41438 20.0361 3.41438C20.03 3.41438 20.0796 3.46983 20.1465 3.53729ZM20.4259 3.81656C20.4862 3.87814 20.5409 3.92849 20.547 3.92849C20.5531 3.92849 20.5087 3.87814 20.4481 3.81656C20.3876 3.75522 20.3331 3.70488 20.327 3.70488C20.3209 3.70488 20.3653 3.75522 20.4259 3.81656ZM3.29576 4.03455L3.15112 4.18532L3.3019 4.04094C3.38495 3.96121 3.45267 3.89349 3.45267 3.88991C3.45267 3.87355 3.42993 3.89451 3.29576 4.03455ZM14.4926 3.9086C14.1872 3.95971 14.0142 4.11585 13.7556 4.57353C13.5473 4.94229 13.4954 5.0049 13.3355 5.08361L13.2074 5.14647L10.47 5.15772L7.73234 5.16922L7.60252 5.21854C7.20438 5.36982 7.15378 5.40739 5.99129 6.41629C4.87761 7.38277 4.83468 7.42774 4.80172 7.66796C4.77361 7.87393 4.91697 8.28076 5.34297 9.20457C5.79017 10.1739 5.78966 10.1682 5.47457 10.5546C5.19424 10.8981 5.17226 10.9829 5.15897 11.7613C5.14006 12.8773 5.18504 15.2723 5.22797 15.4223C5.24841 15.4938 5.50166 16.2078 5.79094 17.009C6.08022 17.8101 6.45281 18.8428 6.61917 19.3036C7.0421 20.4757 7.07328 20.5271 7.3991 20.6002C7.55524 20.6352 7.56342 20.6337 10.2778 20.0173C13.474 19.2918 13.0574 19.4234 13.8445 18.8906C16.6479 16.9926 16.5664 17.0583 16.6617 16.6193C16.756 16.1846 16.7851 16.1693 17.7889 16.0302C19.416 15.8051 19.428 15.8015 19.5742 15.511C19.6531 15.3541 20.0973 12.783 20.1177 12.3626C20.1392 11.9315 20.2511 12.1291 18.6971 9.86184C16.7348 6.99894 16.861 7.19724 16.862 6.979C16.8625 6.84433 16.9185 6.72754 17.495 5.65757C17.7871 5.11529 18.0503 4.61238 18.0802 4.54031C18.196 4.2587 18.1357 4.05145 17.9077 3.94872L17.7889 3.8948L16.2022 3.89148C15.3229 3.88969 14.5606 3.89736 14.4926 3.9086ZM16.7496 4.69132C17.0503 4.82881 17.0363 4.8881 16.4368 6.00688C15.8058 7.18445 15.7381 6.9013 17.1398 8.94542C17.6792 9.732 18.3618 10.7276 18.6567 11.1577C19.4581 12.3266 19.4116 12.105 19.1653 13.5713C18.9332 14.9556 18.9294 14.9682 18.6938 15.0852C18.5622 15.1506 18.6071 15.1432 17.218 15.3362C16.0879 15.4931 16.0527 15.5145 15.9461 16.1084C15.8912 16.4141 15.8227 16.5659 15.6847 16.6872C15.6009 16.7611 13.7244 18.0559 13.1852 18.4122C12.7842 18.6769 13.0339 18.6092 9.56484 19.3932C9.24515 19.4655 8.78261 19.5719 8.53677 19.6294C7.64415 19.8384 7.62728 19.8289 7.30631 18.9478C6.74462 17.4046 6.02168 15.3852 5.98564 15.2585C5.94706 15.1228 5.9445 14.9907 5.9445 13.2026V11.2919L6.00353 11.1802C6.03599 11.1186 6.13028 10.9929 6.21308 10.9006C6.69964 10.3586 6.6976 10.3167 6.12619 9.07396C5.48733 7.68455 5.43673 7.91071 6.61506 6.88903C7.5174 6.10629 7.55419 6.07665 7.72107 5.99743L7.86647 5.92843L10.7046 5.91667C12.9496 5.90722 13.5613 5.89853 13.6321 5.87553C13.8869 5.79248 14.04 5.63864 14.2672 5.23615C14.6104 4.62871 14.5672 4.64481 15.8222 4.6512C16.5464 4.65504 16.6829 4.66091 16.7496 4.69132ZM20.3249 20.326L19.9342 20.7226L20.3308 20.3318C20.549 20.1169 20.7274 19.9383 20.7274 19.9352C20.7274 19.9191 20.6881 19.9575 20.3249 20.326ZM3.64278 20.3763C3.83904 20.5728 4.00489 20.7338 4.01102 20.7338C4.01716 20.7338 3.86153 20.5728 3.66501 20.3763C3.46875 20.1795 3.3029 20.0188 3.29677 20.0188C3.29064 20.0188 3.44626 20.1795 3.64278 20.3763ZM6.08964 22.241C6.08964 22.2472 6.12005 22.2679 6.15685 22.287C6.19365 22.306 6.2238 22.3167 6.2238 22.3106C6.2238 22.3044 6.19365 22.2837 6.15685 22.2646C6.12005 22.2456 6.08964 22.2349 6.08964 22.241ZM6.29101 22.354C6.29101 22.3691 6.51717 22.4817 6.52714 22.4715C6.53174 22.4672 6.48037 22.4363 6.41317 22.4033C6.34596 22.3703 6.29101 22.3481 6.29101 22.354Z" fill="#F7F5FC"/>
<path d="M4.51008 3.34534C4.45923 3.34534 4.40838 3.34789 4.35752 3.353C4.30692 3.35786 4.25658 3.36527 4.20675 3.37524C4.15666 3.3852 4.10734 3.39747 4.05879 3.41229C4.00998 3.42711 3.96194 3.44423 3.91491 3.46391C3.86789 3.48333 3.8219 3.50505 3.77717 3.52908C3.7322 3.5531 3.6885 3.57916 3.64608 3.60753C3.60391 3.63589 3.56303 3.66605 3.52367 3.6985C3.48432 3.7307 3.4465 3.76495 3.41046 3.80098C3.37443 3.83675 3.34044 3.87458 3.30799 3.91393C3.27579 3.95328 3.24538 3.99417 3.21727 4.03659C3.1889 4.07876 3.16258 4.12246 3.13882 4.16743C3.1148 4.21241 3.09307 4.25815 3.0734 4.30543C3.05397 4.35245 3.03685 4.40024 3.02203 4.44905C3.00721 4.49786 2.99494 4.54718 2.98498 4.59701C2.97501 4.6471 2.9676 4.69718 2.96249 4.74804C2.95763 4.79864 2.95508 4.84949 2.95508 4.90034C2.95508 4.9512 2.95763 5.00205 2.96249 5.05291C2.9676 5.1035 2.97501 5.15385 2.98498 5.20368C2.99494 5.25377 3.00721 5.30309 3.02203 5.3519C3.03685 5.40045 3.05397 5.44849 3.0734 5.49551C3.09307 5.54254 3.1148 5.58853 3.13882 5.63351C3.16258 5.67823 3.1889 5.72193 3.21727 5.76435C3.24538 5.80652 3.27579 5.8474 3.30799 5.88676C3.34044 5.92611 3.37443 5.96393 3.41046 5.99997C3.4465 6.036 3.48432 6.06999 3.52367 6.10244C3.56303 6.13464 3.60391 6.16505 3.64608 6.19341C3.6885 6.22152 3.7322 6.24785 3.77717 6.27187C3.8219 6.29563 3.86789 6.31761 3.91491 6.33703C3.96194 6.35645 4.00998 6.37358 4.05879 6.3884C4.10734 6.40322 4.15666 6.41549 4.20675 6.42545C4.25658 6.43542 4.30692 6.44283 4.35752 6.44794C4.40838 6.4528 4.45923 6.45535 4.51008 6.45535C4.56094 6.45535 4.61179 6.4528 4.66239 6.44794C4.71325 6.44283 4.76359 6.43542 4.81342 6.42545C4.86325 6.41549 4.91283 6.40322 4.96138 6.3884C5.01019 6.37358 5.05798 6.35645 5.105 6.33703C5.15228 6.31761 5.19827 6.29563 5.243 6.27187C5.28797 6.24785 5.33167 6.22152 5.37384 6.19341C5.41626 6.16505 5.45714 6.13464 5.4965 6.10244C5.53585 6.06999 5.57367 6.036 5.60971 5.99997C5.64548 5.96393 5.67973 5.92611 5.71218 5.88676C5.74438 5.8474 5.77479 5.80652 5.8029 5.76435C5.83127 5.72193 5.85733 5.67823 5.88135 5.63351C5.90537 5.58853 5.9271 5.54254 5.94677 5.49551C5.96619 5.44849 5.98332 5.40045 5.99814 5.3519C6.01296 5.30309 6.02523 5.25377 6.03519 5.20368C6.04516 5.15385 6.05257 5.1035 6.05743 5.05291C6.06254 5.00205 6.06509 4.9512 6.06509 4.90034C6.06509 4.84949 6.06254 4.79864 6.05743 4.74804C6.05257 4.69718 6.04516 4.6471 6.03519 4.59701C6.02523 4.54718 6.01296 4.49786 5.99814 4.44905C5.98332 4.40024 5.96619 4.35245 5.94677 4.30543C5.9271 4.25815 5.90537 4.21241 5.88135 4.16743C5.85733 4.12246 5.83127 4.07876 5.8029 4.03659C5.77479 3.99417 5.74438 3.95328 5.71218 3.91393C5.67973 3.87458 5.64548 3.83675 5.60971 3.80098C5.57367 3.76495 5.53585 3.7307 5.4965 3.6985C5.45714 3.66605 5.41626 3.63589 5.37384 3.60753C5.33167 3.57916 5.28797 3.5531 5.243 3.52908C5.19827 3.50505 5.15228 3.48333 5.105 3.46391C5.05798 3.44423 5.01019 3.42711 4.96138 3.41229C4.91283 3.39747 4.86325 3.3852 4.81342 3.37524C4.76359 3.36527 4.71325 3.35786 4.66239 3.353C4.61179 3.34789 4.56094 3.34534 4.51008 3.34534Z" fill="#571AFF"/>
<path d="M5.19343 2.54219C5.14258 2.54219 5.09173 2.54449 5.04113 2.5496C4.99053 2.55446 4.94019 2.56212 4.8901 2.57183C4.84027 2.5818 4.79095 2.59432 4.74214 2.60914C4.69333 2.62371 4.64554 2.64083 4.59852 2.66051C4.5515 2.67993 4.5055 2.70165 4.46052 2.72567C4.41555 2.7497 4.37185 2.77576 4.32968 2.80413C4.28726 2.83249 4.24638 2.86265 4.20702 2.8951C4.16767 2.9273 4.1301 2.96154 4.09407 2.99758C4.05804 3.03361 4.02379 3.07117 3.99159 3.11053C3.95914 3.14988 3.92899 3.19077 3.90062 3.23319C3.87225 3.27561 3.84619 3.31905 3.82217 3.36403C3.79814 3.40901 3.77642 3.45501 3.757 3.50203C3.73732 3.54905 3.7202 3.59683 3.70538 3.64564C3.69081 3.69445 3.67829 3.74377 3.66833 3.79361C3.65862 3.84369 3.65095 3.89404 3.64609 3.94464C3.64098 3.99523 3.63843 4.04609 3.63843 4.09694C3.63843 4.14805 3.64098 4.1989 3.64609 4.2495C3.65095 4.3001 3.65862 4.35044 3.66833 4.40053C3.67829 4.45036 3.69081 4.49968 3.70538 4.54849C3.7202 4.59705 3.73732 4.64509 3.757 4.69211C3.77642 4.73913 3.79814 4.78513 3.82217 4.83011C3.84619 4.87508 3.87225 4.91853 3.90062 4.96095C3.92899 5.00337 3.95914 5.04426 3.99159 5.08361C4.02379 5.12296 4.05804 5.16053 4.09407 5.19656C4.1301 5.23259 4.16767 5.26684 4.20702 5.29904C4.24638 5.33124 4.28726 5.36165 4.32968 5.39001C4.37185 5.41838 4.41555 5.44444 4.46052 5.46846C4.5055 5.49249 4.5515 5.51421 4.59852 5.53363C4.64554 5.55305 4.69333 5.57017 4.74214 5.58499C4.79095 5.59982 4.84027 5.61208 4.8901 5.62205C4.94019 5.63201 4.99053 5.63943 5.04113 5.64454C5.09173 5.64965 5.14258 5.65195 5.19343 5.65195C5.24454 5.65195 5.29514 5.64965 5.346 5.64454C5.39659 5.63943 5.44694 5.63201 5.49677 5.62205C5.54686 5.61208 5.59618 5.59982 5.64499 5.58499C5.69354 5.57017 5.74158 5.55305 5.7886 5.53363C5.83563 5.51421 5.88162 5.49249 5.9266 5.46846C5.97132 5.44444 6.01502 5.41838 6.05744 5.39001C6.09986 5.36165 6.14049 5.33124 6.1801 5.29904C6.21946 5.26684 6.25702 5.23259 6.29306 5.19656C6.32909 5.16053 6.36333 5.12296 6.39553 5.08361C6.42773 5.04426 6.45814 5.00337 6.4865 4.96095C6.51461 4.91853 6.54094 4.87508 6.56496 4.83011C6.58898 4.78513 6.6107 4.73913 6.63012 4.69211C6.64954 4.64509 6.66667 4.59705 6.68149 4.54849C6.69631 4.49968 6.70858 4.45036 6.71854 4.40053C6.72851 4.35044 6.73592 4.3001 6.74103 4.2495C6.74589 4.1989 6.74844 4.14805 6.74844 4.09694C6.74844 4.04609 6.74589 3.99523 6.74103 3.94464C6.73592 3.89404 6.72851 3.84369 6.71854 3.79361C6.70858 3.74377 6.69631 3.69445 6.68149 3.64564C6.66667 3.59683 6.64954 3.54905 6.63012 3.50203C6.6107 3.45501 6.58898 3.40901 6.56496 3.36403C6.54094 3.31905 6.51461 3.27561 6.4865 3.23319C6.45814 3.19077 6.42773 3.14988 6.39553 3.11053C6.36333 3.07117 6.32909 3.03361 6.29306 2.99758C6.25702 2.96154 6.21946 2.9273 6.1801 2.8951C6.14049 2.86265 6.09986 2.83249 6.05744 2.80413C6.01502 2.77576 5.97132 2.7497 5.9266 2.72567C5.88162 2.70165 5.83563 2.67993 5.7886 2.66051C5.74158 2.64083 5.69354 2.62371 5.64499 2.60914C5.59618 2.59432 5.54686 2.5818 5.49677 2.57183C5.44694 2.56212 5.39659 2.55446 5.346 2.5496C5.29514 2.54449 5.24454 2.54219 5.19343 2.54219Z" fill="#571AFF"/>
<path d="M6.01619 2.13792C5.96508 2.13792 5.91448 2.14048 5.86363 2.14534C5.81303 2.15045 5.76269 2.15786 5.71285 2.16782C5.66277 2.17779 5.61345 2.19006 5.56464 2.20488C5.51608 2.2197 5.46804 2.23682 5.42102 2.25624C5.374 2.27566 5.328 2.29764 5.28302 2.32141C5.2383 2.34543 5.1946 2.37175 5.15218 2.39986C5.10976 2.42823 5.06913 2.45864 5.02977 2.49084C4.99042 2.52329 4.9526 2.55728 4.91657 2.59331C4.88054 2.62934 4.84655 2.66716 4.81409 2.70652C4.78189 2.74587 4.75148 2.78676 4.72312 2.82892C4.69501 2.87135 4.66869 2.91504 4.64466 2.95977C4.62064 3.00474 4.59892 3.05074 4.5795 3.09776C4.56008 3.14478 4.54296 3.19282 4.52814 3.24163C4.51331 3.29019 4.50105 3.33951 4.49108 3.3896C4.48111 3.43943 4.4737 3.48977 4.46859 3.54037C4.46374 3.59122 4.46118 3.64208 4.46118 3.69293C4.46118 3.74378 4.46374 3.79464 4.46859 3.84524C4.4737 3.89609 4.48111 3.94618 4.49108 3.99627C4.50105 4.0461 4.51331 4.09542 4.52814 4.14423C4.54296 4.19304 4.56008 4.24082 4.5795 4.28785C4.59892 4.33512 4.62064 4.38086 4.64466 4.42584C4.66869 4.47082 4.69501 4.51452 4.72312 4.55668C4.75148 4.5991 4.78189 4.63999 4.81409 4.67934C4.84655 4.7187 4.88054 4.75652 4.91657 4.7923C4.9526 4.82833 4.99042 4.86257 5.02977 4.89477C5.06913 4.92723 5.10976 4.95738 5.15218 4.98575C5.1946 5.01411 5.2383 5.04018 5.28302 5.0642C5.328 5.08822 5.374 5.10994 5.42102 5.12962C5.46804 5.14904 5.51608 5.16616 5.56464 5.18098C5.61345 5.19581 5.66277 5.20807 5.71285 5.21804C5.76269 5.228 5.81303 5.23542 5.86363 5.24027C5.91448 5.24538 5.96508 5.24794 6.01619 5.24794C6.06704 5.24794 6.1179 5.24538 6.16849 5.24027C6.21935 5.23542 6.26944 5.228 6.31952 5.21804C6.36935 5.20807 6.41868 5.19581 6.46749 5.18098C6.51629 5.16616 6.56408 5.14904 6.6111 5.12962C6.65812 5.10994 6.70412 5.08822 6.7491 5.0642C6.79408 5.04018 6.83777 5.01411 6.87994 4.98575C6.92236 4.95738 6.96325 4.92723 7.0026 4.89477C7.04196 4.86257 7.07952 4.82833 7.11555 4.7923C7.15159 4.75652 7.18583 4.7187 7.21803 4.67934C7.25048 4.63999 7.28064 4.5991 7.309 4.55668C7.33737 4.51452 7.36343 4.47082 7.38746 4.42584C7.41148 4.38086 7.4332 4.33512 7.45262 4.28785C7.4723 4.24082 7.48942 4.19304 7.50424 4.14423C7.51881 4.09542 7.53133 4.0461 7.5413 3.99627C7.55126 3.94618 7.55867 3.89609 7.56353 3.84524C7.56864 3.79464 7.5712 3.74378 7.5712 3.69293C7.5712 3.64208 7.56864 3.59122 7.56353 3.54037C7.55867 3.48977 7.55126 3.43943 7.5413 3.3896C7.53133 3.33951 7.51881 3.29019 7.50424 3.24163C7.48942 3.19282 7.4723 3.14478 7.45262 3.09776C7.4332 3.05074 7.41148 3.00474 7.38746 2.95977C7.36343 2.91504 7.33737 2.87135 7.309 2.82892C7.28064 2.78676 7.25048 2.74587 7.21803 2.70652C7.18583 2.66716 7.15159 2.62934 7.11555 2.59331C7.07952 2.55728 7.04196 2.52329 7.0026 2.49084C6.96325 2.45864 6.92236 2.42823 6.87994 2.39986C6.83777 2.37175 6.79408 2.34543 6.7491 2.32141C6.70412 2.29764 6.65812 2.27566 6.6111 2.25624C6.56408 2.23682 6.51629 2.2197 6.46749 2.20488C6.41868 2.19006 6.36935 2.17779 6.31952 2.16782C6.26944 2.15786 6.21935 2.15045 6.16849 2.14534C6.1179 2.14048 6.06704 2.13792 6.01619 2.13792Z" fill="#571AFF"/>
<path d="M6.74861 1.4523C6.69776 1.4523 6.6469 1.45486 6.5963 1.45971C6.54545 1.46482 6.49536 1.47223 6.44528 1.4822C6.39544 1.49217 6.34612 1.50443 6.29731 1.51925C6.2485 1.53408 6.20072 1.5512 6.1537 1.57062C6.10642 1.59004 6.06068 1.61176 6.0157 1.63578C5.97072 1.65981 5.92702 1.68613 5.88486 1.71424C5.84244 1.7426 5.80155 1.77301 5.7622 1.80521C5.72284 1.83741 5.68502 1.87165 5.64924 1.90769C5.61321 1.94372 5.57897 1.98128 5.54677 2.02089C5.51432 2.06025 5.48416 2.10088 5.4558 2.1433C5.42743 2.18572 5.40136 2.22942 5.37734 2.27414C5.35332 2.31912 5.3316 2.36512 5.31218 2.41214C5.2925 2.45916 5.27538 2.5072 5.26056 2.55576C5.24574 2.60456 5.23347 2.65389 5.2235 2.70397C5.21354 2.7538 5.20613 2.80415 5.20127 2.85475C5.19616 2.9056 5.1936 2.9562 5.1936 3.00731C5.1936 3.05816 5.19616 3.10902 5.20127 3.15961C5.20613 3.21021 5.21354 3.26056 5.2235 3.31064C5.23347 3.36047 5.24574 3.4098 5.26056 3.45861C5.27538 3.50741 5.2925 3.5552 5.31218 3.60222C5.3316 3.64924 5.35332 3.69524 5.37734 3.74022C5.40136 3.78519 5.42743 3.82889 5.4558 3.87106C5.48416 3.91348 5.51432 3.95437 5.54677 3.99372C5.57897 4.03308 5.61321 4.07064 5.64924 4.10667C5.68502 4.14271 5.72284 4.17695 5.7622 4.20915C5.80155 4.2416 5.84244 4.27176 5.88486 4.30012C5.92702 4.32849 5.97072 4.35455 6.0157 4.37858C6.06068 4.4026 6.10642 4.42432 6.1537 4.44374C6.20072 4.46342 6.2485 4.48054 6.29731 4.49536C6.34612 4.50993 6.39544 4.52245 6.44528 4.53242C6.49536 4.54238 6.54545 4.54979 6.5963 4.55465C6.6469 4.55976 6.69776 4.56231 6.74861 4.56231C6.79946 4.56231 6.85032 4.55976 6.90117 4.55465C6.95177 4.54979 7.00211 4.54238 7.05194 4.53242C7.10203 4.52245 7.15135 4.50993 7.20016 4.49536C7.24872 4.48054 7.29676 4.46342 7.34378 4.44374C7.3908 4.42432 7.4368 4.4026 7.48178 4.37858C7.5265 4.35455 7.5702 4.32849 7.61262 4.30012C7.65478 4.27176 7.69567 4.2416 7.73502 4.20915C7.77438 4.17695 7.8122 4.14271 7.84823 4.10667C7.88426 4.07064 7.91825 4.03308 7.95071 3.99372C7.9829 3.95437 8.01331 3.91348 8.04168 3.87106C8.06979 3.82889 8.09611 3.78519 8.12013 3.74022C8.1439 3.69524 8.16588 3.64924 8.1853 3.60222C8.20472 3.5552 8.22184 3.50741 8.23666 3.45861C8.25148 3.4098 8.26375 3.36047 8.27372 3.31064C8.28368 3.26056 8.29109 3.21021 8.29621 3.15961C8.30106 3.10902 8.30362 3.05816 8.30362 3.00731C8.30362 2.9562 8.30106 2.9056 8.29621 2.85475C8.29109 2.80415 8.28368 2.7538 8.27372 2.70397C8.26375 2.65389 8.25148 2.60456 8.23666 2.55576C8.22184 2.5072 8.20472 2.45916 8.1853 2.41214C8.16588 2.36512 8.1439 2.31912 8.12013 2.27414C8.09611 2.22942 8.06979 2.18572 8.04168 2.1433C8.01331 2.10088 7.9829 2.06025 7.95071 2.02089C7.91825 1.98128 7.88426 1.94372 7.84823 1.90769C7.8122 1.87165 7.77438 1.83741 7.73502 1.80521C7.69567 1.77301 7.65478 1.7426 7.61262 1.71424C7.5702 1.68613 7.5265 1.65981 7.48178 1.63578C7.4368 1.61176 7.3908 1.59004 7.34378 1.57062C7.29676 1.5512 7.24872 1.53408 7.20016 1.51925C7.15135 1.50443 7.10203 1.49217 7.05194 1.4822C7.00211 1.47223 6.95177 1.46482 6.90117 1.45971C6.85032 1.45486 6.79946 1.4523 6.74861 1.4523Z" fill="#571AFF"/>
<path d="M19.8953 3.34534C19.8365 3.34534 19.7785 3.35121 19.721 3.36246C19.6635 3.37396 19.6078 3.39082 19.5536 3.41331C19.4995 3.4358 19.4481 3.46314 19.3995 3.49585C19.3507 3.52831 19.3058 3.56536 19.2641 3.60676C19.2227 3.64816 19.1859 3.69339 19.1532 3.74195C19.1207 3.79076 19.0931 3.84212 19.0706 3.8963C19.0484 3.95047 19.0313 4.00618 19.0201 4.06368C19.0086 4.12118 19.0029 4.17919 19.0029 4.23771C19.0029 4.29623 19.0086 4.35449 19.0201 4.41174C19.0313 4.46923 19.0484 4.5252 19.0706 4.57912C19.0931 4.6333 19.1207 4.68492 19.1532 4.73347C19.1859 4.78228 19.2227 4.82726 19.2641 4.86866C19.3058 4.91005 19.3507 4.94711 19.3995 4.97982C19.4481 5.01227 19.4995 5.03987 19.5536 5.0621C19.6078 5.08459 19.6635 5.10146 19.721 5.11296C19.7785 5.12446 19.8365 5.13008 19.8953 5.13008C19.9538 5.13008 20.0118 5.12446 20.0693 5.11296C20.1268 5.10146 20.1825 5.08459 20.2367 5.0621C20.2909 5.03987 20.3423 5.01227 20.3908 4.97982C20.4396 4.94711 20.4849 4.91005 20.5262 4.86866C20.5676 4.82726 20.6047 4.78228 20.6372 4.73347C20.6696 4.68492 20.6972 4.6333 20.7197 4.57912C20.7419 4.5252 20.7591 4.46923 20.7703 4.41174C20.7818 4.35449 20.7874 4.29623 20.7874 4.23771C20.7874 4.17919 20.7818 4.12118 20.7703 4.06368C20.7591 4.00618 20.7419 3.95047 20.7197 3.8963C20.6972 3.84212 20.6696 3.79076 20.6372 3.74195C20.6047 3.69339 20.5676 3.64816 20.5262 3.60676C20.4849 3.56536 20.4396 3.52831 20.3908 3.49585C20.3423 3.46314 20.2909 3.4358 20.2367 3.41331C20.1825 3.39082 20.1268 3.37396 20.0693 3.36246C20.0118 3.35121 19.9538 3.34534 19.8953 3.34534Z" fill="#571AFF"/>
<path d="M19.2818 17.7115C19.2307 17.7115 19.1799 17.7138 19.1293 17.7189C19.0787 17.7237 19.0283 17.7314 18.9782 17.7411C18.9284 17.7511 18.8791 17.7636 18.8303 17.7784C18.7815 17.793 18.7337 17.8101 18.6866 17.8298C18.6396 17.8492 18.5936 17.8709 18.5486 17.8949C18.5037 17.919 18.4602 17.945 18.4178 17.9734C18.3754 18.0018 18.3345 18.0319 18.2951 18.0644C18.2558 18.0966 18.2182 18.1308 18.1822 18.1668C18.1462 18.2029 18.1119 18.2404 18.0797 18.2798C18.0473 18.3191 18.0171 18.36 17.9887 18.4025C17.9604 18.4449 17.9343 18.4883 17.9103 18.5333C17.8863 18.5783 17.8645 18.6243 17.8451 18.6713C17.8257 18.7183 17.8086 18.7661 17.7938 18.8149C17.7789 18.8637 17.7664 18.913 17.7567 18.9629C17.7467 19.013 17.7393 19.0633 17.7342 19.1139C17.7291 19.1645 17.7268 19.2154 17.7268 19.2662C17.7268 19.3173 17.7291 19.3682 17.7342 19.4188C17.7393 19.4694 17.7467 19.5197 17.7567 19.5698C17.7664 19.6196 17.7789 19.669 17.7938 19.7178C17.8086 19.7663 17.8257 19.8144 17.8451 19.8614C17.8645 19.9084 17.8863 19.9544 17.9103 19.9994C17.9343 20.0444 17.9604 20.0878 17.9887 20.1302C18.0171 20.1726 18.0473 20.2135 18.0797 20.2529C18.1119 20.2922 18.1462 20.3298 18.1822 20.3658C18.2182 20.4019 18.2558 20.4361 18.2951 20.4683C18.3345 20.5005 18.3754 20.5309 18.4178 20.5593C18.4602 20.5876 18.5037 20.6137 18.5486 20.6377C18.5936 20.6618 18.6396 20.6835 18.6866 20.7029C18.7337 20.7223 18.7815 20.7394 18.8303 20.7543C18.8791 20.7691 18.9284 20.7814 18.9782 20.7913C19.0283 20.8013 19.0787 20.8087 19.1293 20.8138C19.1799 20.8189 19.2307 20.8212 19.2818 20.8212C19.3327 20.8212 19.3835 20.8189 19.4341 20.8138C19.4847 20.8087 19.5351 20.8013 19.5851 20.7913C19.635 20.7814 19.6843 20.7691 19.7331 20.7543C19.7819 20.7394 19.8297 20.7223 19.8767 20.7029C19.9238 20.6835 19.9697 20.6618 20.0147 20.6377C20.0597 20.6137 20.1031 20.5876 20.1456 20.5593C20.188 20.5309 20.2289 20.5005 20.2682 20.4683C20.3076 20.4361 20.3451 20.4019 20.3812 20.3658C20.4172 20.3298 20.4515 20.2922 20.4837 20.2529C20.5161 20.2135 20.5463 20.1726 20.5746 20.1302C20.603 20.0878 20.6291 20.0444 20.6531 19.9994C20.6771 19.9544 20.6988 19.9084 20.7182 19.8614C20.7377 19.8144 20.755 19.7663 20.7696 19.7178C20.7844 19.669 20.797 19.6196 20.8067 19.5698C20.8166 19.5197 20.8243 19.4694 20.8292 19.4188C20.8343 19.3682 20.8366 19.3173 20.8366 19.2662C20.8366 19.2154 20.8343 19.1645 20.8292 19.1139C20.8243 19.0633 20.8166 19.013 20.8067 18.9629C20.797 18.913 20.7844 18.8637 20.7696 18.8149C20.755 18.7661 20.7377 18.7183 20.7182 18.6713C20.6988 18.6243 20.6771 18.5783 20.6531 18.5333C20.6291 18.4883 20.603 18.4449 20.5746 18.4025C20.5463 18.36 20.5161 18.3191 20.4837 18.2798C20.4515 18.2404 20.4172 18.2029 20.3812 18.1668C20.3451 18.1308 20.3076 18.0966 20.2682 18.0644C20.2289 18.0319 20.188 18.0018 20.1456 17.9734C20.1031 17.945 20.0597 17.919 20.0147 17.8949C19.9697 17.8709 19.9238 17.8492 19.8767 17.8298C19.8297 17.8101 19.7819 17.793 19.7331 17.7784C19.6843 17.7636 19.635 17.7511 19.5851 17.7411C19.5351 17.7314 19.4847 17.7237 19.4341 17.7189C19.3835 17.7138 19.3327 17.7115 19.2818 17.7115Z" fill="#571AFF"/>
<path d="M19.6253 17.3092C19.5742 17.3092 19.5234 17.3118 19.4728 17.3166C19.4222 17.3218 19.3718 17.3292 19.3217 17.3391C19.2719 17.3491 19.2226 17.3614 19.1738 17.3762C19.125 17.391 19.0772 17.4081 19.0301 17.4276C18.9831 17.447 18.9371 17.4687 18.8922 17.4927C18.8472 17.5167 18.8037 17.5431 18.7613 17.5712C18.7189 17.5995 18.678 17.6299 18.6387 17.6621C18.5993 17.6943 18.5617 17.7286 18.5257 17.7646C18.4897 17.8007 18.4554 17.8382 18.4232 17.8776C18.3908 17.9169 18.3606 17.9578 18.3322 18.0002C18.3039 18.0427 18.2778 18.0861 18.2538 18.1311C18.2298 18.1761 18.2081 18.222 18.1886 18.2691C18.1692 18.3161 18.1521 18.3641 18.1373 18.4127C18.1224 18.4615 18.1099 18.5108 18.1002 18.5609C18.0902 18.6107 18.0828 18.6611 18.0777 18.7117C18.0726 18.7625 18.0703 18.8131 18.0703 18.8642C18.0703 18.9151 18.0726 18.9659 18.0777 19.0165C18.0828 19.0671 18.0902 19.1175 18.1002 19.1676C18.1099 19.2174 18.1224 19.2667 18.1373 19.3155C18.1521 19.3643 18.1692 19.4121 18.1886 19.4592C18.2081 19.5062 18.2298 19.5522 18.2538 19.5971C18.2778 19.6421 18.3039 19.6856 18.3322 19.728C18.3606 19.7704 18.3908 19.8113 18.4232 19.8507C18.4554 19.89 18.4897 19.9276 18.5257 19.9636C18.5617 19.9996 18.5993 20.0339 18.6387 20.0661C18.678 20.0985 18.7189 20.1287 18.7613 20.1571C18.8037 20.1854 18.8472 20.2115 18.8922 20.2355C18.9371 20.2595 18.9831 20.2812 19.0301 20.3007C19.0772 20.3203 19.125 20.3375 19.1738 20.352C19.2226 20.3669 19.2719 20.3794 19.3217 20.3893C19.3718 20.3991 19.4222 20.4067 19.4728 20.4116C19.5234 20.4167 19.5742 20.419 19.6253 20.419C19.6762 20.419 19.727 20.4167 19.7776 20.4116C19.8282 20.4067 19.8786 20.3991 19.9287 20.3893C19.9785 20.3794 20.0278 20.3669 20.0766 20.352C20.1254 20.3375 20.1732 20.3203 20.2202 20.3007C20.2673 20.2812 20.3133 20.2595 20.3582 20.2355C20.4032 20.2115 20.4466 20.1854 20.4891 20.1571C20.5315 20.1287 20.5724 20.0985 20.6117 20.0661C20.6511 20.0339 20.6887 19.9996 20.7247 19.9636C20.7607 19.9276 20.795 19.89 20.8272 19.8507C20.8596 19.8113 20.8898 19.7704 20.9181 19.728C20.9465 19.6856 20.9726 19.6421 20.9966 19.5971C21.0206 19.5522 21.0423 19.5062 21.0618 19.4592C21.0812 19.4121 21.0985 19.3643 21.1131 19.3155C21.1279 19.2667 21.1405 19.2174 21.1502 19.1676C21.1601 19.1175 21.1678 19.0671 21.1727 19.0165C21.1778 18.9659 21.1801 18.9151 21.1801 18.8642C21.1801 18.8131 21.1778 18.7625 21.1727 18.7117C21.1678 18.6611 21.1601 18.6107 21.1502 18.5609C21.1405 18.5108 21.1279 18.4615 21.1131 18.4127C21.0985 18.3641 21.0812 18.3161 21.0618 18.2691C21.0423 18.222 21.0206 18.1761 20.9966 18.1311C20.9726 18.0861 20.9465 18.0427 20.9181 18.0002C20.8898 17.9578 20.8596 17.9169 20.8272 17.8776C20.795 17.8382 20.7607 17.8007 20.7247 17.7646C20.6887 17.7286 20.6511 17.6943 20.6117 17.6621C20.5724 17.6299 20.5315 17.5995 20.4891 17.5712C20.4466 17.5431 20.4032 17.5167 20.3582 17.4927C20.3133 17.4687 20.2673 17.447 20.2202 17.4276C20.1732 17.4081 20.1254 17.391 20.0766 17.3762C20.0278 17.3614 19.9785 17.3491 19.9287 17.3391C19.8786 17.3292 19.8282 17.3218 19.7776 17.3166C19.727 17.3118 19.6762 17.3092 19.6253 17.3092Z" fill="#571AFF"/>
<path d="M4.51001 18.6062C4.47295 18.6062 4.4359 18.608 4.3991 18.6115C4.36204 18.6154 4.3255 18.6207 4.28921 18.6279C4.25267 18.6353 4.21689 18.6442 4.18137 18.655C4.14585 18.6657 4.1111 18.6782 4.07685 18.6923C4.04261 18.7066 4.00913 18.7224 3.97642 18.7398C3.94371 18.7575 3.91177 18.7764 3.8811 18.7971C3.85018 18.8175 3.82054 18.8397 3.79192 18.8633C3.76304 18.8868 3.7357 18.9115 3.70937 18.9379C3.68331 18.9639 3.65827 18.9915 3.63475 19.0202C3.61124 19.0488 3.58927 19.0784 3.56857 19.1093C3.54812 19.1403 3.52896 19.172 3.51158 19.2047C3.4942 19.2374 3.47836 19.2708 3.46405 19.3051C3.44999 19.3393 3.43747 19.3741 3.42674 19.4096C3.41575 19.4451 3.40681 19.4812 3.39965 19.5175C3.3925 19.5537 3.38687 19.5905 3.3833 19.6273C3.37972 19.6641 3.37793 19.7012 3.37793 19.7382C3.37793 19.7753 3.37972 19.8124 3.3833 19.8492C3.38687 19.8862 3.3925 19.9227 3.39965 19.959C3.40681 19.9956 3.41575 20.0314 3.42674 20.0669C3.43747 20.1024 3.44999 20.1372 3.46405 20.1717C3.47836 20.2059 3.4942 20.2394 3.51158 20.2721C3.52896 20.3045 3.54812 20.3365 3.56857 20.3671C3.58927 20.3981 3.61124 20.4277 3.63475 20.4566C3.65827 20.4852 3.68331 20.5126 3.70937 20.5389C3.7357 20.5649 3.76304 20.59 3.79192 20.6135C3.82054 20.637 3.85018 20.659 3.8811 20.6797C3.91177 20.7001 3.94371 20.7193 3.97642 20.7367C4.00913 20.7543 4.04261 20.7701 4.07685 20.7842C4.1111 20.7985 4.14585 20.8108 4.18137 20.8218C4.21689 20.8325 4.25267 20.8414 4.28921 20.8486C4.3255 20.8558 4.36204 20.8614 4.3991 20.865C4.4359 20.8685 4.47295 20.8703 4.51001 20.8703C4.54706 20.8703 4.58411 20.8685 4.62091 20.865C4.65797 20.8614 4.69451 20.8558 4.7308 20.8486C4.76709 20.8414 4.80312 20.8325 4.83864 20.8218C4.87416 20.8108 4.90891 20.7985 4.94316 20.7842C4.9774 20.7701 5.01088 20.7543 5.04359 20.7367C5.0763 20.7193 5.10799 20.7001 5.13891 20.6797C5.16983 20.659 5.19947 20.637 5.22809 20.6135C5.25672 20.59 5.28431 20.5649 5.31038 20.5389C5.3367 20.5126 5.36149 20.4852 5.385 20.4566C5.40851 20.4277 5.43074 20.3981 5.45119 20.3671C5.47189 20.3365 5.4908 20.3045 5.50843 20.2721C5.52581 20.2394 5.54165 20.2059 5.55596 20.1717C5.57002 20.1372 5.58254 20.1024 5.59327 20.0669C5.604 20.0314 5.6132 19.9956 5.62036 19.959C5.62751 19.9227 5.63288 19.8862 5.63671 19.8492C5.64029 19.8124 5.64208 19.7753 5.64208 19.7382C5.64208 19.7012 5.64029 19.6641 5.63671 19.6273C5.63288 19.5905 5.62751 19.5537 5.62036 19.5175C5.6132 19.4812 5.604 19.4451 5.59327 19.4096C5.58254 19.3741 5.57002 19.3393 5.55596 19.3051C5.54165 19.2708 5.52581 19.2374 5.50843 19.2047C5.4908 19.172 5.47189 19.1403 5.45119 19.1093C5.43074 19.0784 5.40851 19.0488 5.385 19.0202C5.36149 18.9915 5.3367 18.9639 5.31038 18.9379C5.28431 18.9115 5.25672 18.8868 5.22809 18.8633C5.19947 18.8397 5.16983 18.8175 5.13891 18.7971C5.10799 18.7764 5.0763 18.7575 5.04359 18.7398C5.01088 18.7224 4.9774 18.7066 4.94316 18.6923C4.90891 18.6782 4.87416 18.6657 4.83864 18.655C4.80312 18.6442 4.76709 18.6353 4.7308 18.6279C4.69451 18.6207 4.65797 18.6154 4.62091 18.6115C4.58411 18.608 4.54706 18.6062 4.51001 18.6062Z" fill="#571AFF"/>
<path d="M4.46101 17.4565C4.41016 17.4565 4.3593 17.459 4.30845 17.4639C4.25785 17.469 4.20751 17.4764 4.15768 17.4864C4.10759 17.4963 4.05827 17.5086 4.00972 17.5234C3.96091 17.5382 3.91286 17.5553 3.86584 17.5748C3.81882 17.5942 3.77282 17.6159 3.7281 17.6399C3.68313 17.664 3.63943 17.6903 3.59701 17.7184C3.55484 17.7468 3.51395 17.7772 3.4746 17.8094C3.43524 17.8416 3.39742 17.8758 3.36139 17.9118C3.32536 17.9479 3.29137 17.9854 3.25892 18.0248C3.22672 18.0641 3.19631 18.105 3.1682 18.1475C3.13983 18.1899 3.11351 18.2333 3.08974 18.2783C3.06572 18.3233 3.044 18.3693 3.02432 18.4163C3.0049 18.4633 2.98778 18.5114 2.97296 18.5599C2.95814 18.6087 2.94587 18.658 2.9359 18.7081C2.92594 18.758 2.91853 18.8083 2.91342 18.8589C2.90856 18.9097 2.90601 18.9603 2.90601 19.0115C2.90601 19.0623 2.90856 19.1132 2.91342 19.1638C2.91853 19.2144 2.92594 19.2647 2.9359 19.3148C2.94587 19.3646 2.95814 19.4139 2.97296 19.4628C2.98778 19.5116 3.0049 19.5594 3.02432 19.6064C3.044 19.6534 3.06572 19.6994 3.08974 19.7444C3.11351 19.7893 3.13983 19.8328 3.1682 19.8752C3.19631 19.9176 3.22672 19.9585 3.25892 19.9979C3.29137 20.0372 3.32536 20.0748 3.36139 20.1108C3.39742 20.1469 3.43524 20.1811 3.4746 20.2133C3.51395 20.2457 3.55484 20.2759 3.59701 20.3043C3.63943 20.3326 3.68313 20.3587 3.7281 20.3827C3.77282 20.4067 3.81882 20.4285 3.86584 20.4479C3.91286 20.4676 3.96091 20.4847 4.00972 20.4993C4.05827 20.5141 4.10759 20.5266 4.15768 20.5366C4.20751 20.5463 4.25785 20.5539 4.30845 20.5588C4.3593 20.5639 4.41016 20.5662 4.46101 20.5662C4.51187 20.5662 4.56272 20.5639 4.61332 20.5588C4.66417 20.5539 4.71452 20.5463 4.76435 20.5366C4.81418 20.5266 4.86375 20.5141 4.91231 20.4993C4.96112 20.4847 5.00891 20.4676 5.05593 20.4479C5.1032 20.4285 5.1492 20.4067 5.19392 20.3827C5.2389 20.3587 5.2826 20.3326 5.32476 20.3043C5.36718 20.2759 5.40807 20.2457 5.44743 20.2133C5.48678 20.1811 5.5246 20.1469 5.56063 20.1108C5.59641 20.0748 5.63065 20.0372 5.66311 19.9979C5.69531 19.9585 5.72572 19.9176 5.75383 19.8752C5.78219 19.8328 5.80826 19.7893 5.83228 19.7444C5.8563 19.6994 5.87802 19.6534 5.8977 19.6064C5.91712 19.5594 5.93424 19.5116 5.94906 19.4628C5.96389 19.4139 5.97615 19.3646 5.98612 19.3148C5.99609 19.2647 6.0035 19.2144 6.00835 19.1638C6.01346 19.1132 6.01602 19.0623 6.01602 19.0115C6.01602 18.9603 6.01346 18.9097 6.00835 18.8589C6.0035 18.8083 5.99609 18.758 5.98612 18.7081C5.97615 18.658 5.96389 18.6087 5.94906 18.5599C5.93424 18.5114 5.91712 18.4633 5.8977 18.4163C5.87802 18.3693 5.8563 18.3233 5.83228 18.2783C5.80826 18.2333 5.78219 18.1899 5.75383 18.1475C5.72572 18.105 5.69531 18.0641 5.66311 18.0248C5.63065 17.9854 5.59641 17.9479 5.56063 17.9118C5.5246 17.8758 5.48678 17.8416 5.44743 17.8094C5.40807 17.7772 5.36718 17.7468 5.32476 17.7184C5.2826 17.6903 5.2389 17.664 5.19392 17.6399C5.1492 17.6159 5.1032 17.5942 5.05593 17.5748C5.00891 17.5553 4.96112 17.5382 4.91231 17.5234C4.86375 17.5086 4.81418 17.4963 4.76435 17.4864C4.71452 17.4764 4.66417 17.469 4.61332 17.4639C4.56272 17.459 4.51187 17.4565 4.46101 17.4565Z" fill="#571AFF"/>
<path d="M7.47298 21.3466C7.37076 21.3466 7.26956 21.351 7.16964 21.3594C7.06947 21.3678 6.9721 21.3804 6.87781 21.397C6.78351 21.4138 6.69381 21.434 6.60897 21.4583C6.52413 21.4826 6.44542 21.5099 6.37335 21.5406C6.30103 21.5715 6.23664 21.605 6.1799 21.641C6.12317 21.6773 6.07539 21.7154 6.03629 21.7558C5.99719 21.7959 5.9678 21.8373 5.94787 21.88C5.92794 21.9226 5.91797 21.9658 5.91797 22.0093C5.91797 22.0527 5.92794 22.0959 5.94787 22.1386C5.9678 22.1813 5.99719 22.2226 6.03629 22.2628C6.07539 22.3031 6.12317 22.3412 6.1799 22.3775C6.23664 22.4135 6.30103 22.447 6.37335 22.4779C6.44542 22.5086 6.52413 22.536 6.60897 22.5602C6.69381 22.5845 6.78351 22.6047 6.87781 22.6216C6.9721 22.6382 7.06947 22.6507 7.16964 22.6591C7.26956 22.6676 7.37076 22.6719 7.47298 22.6719C7.57494 22.6719 7.67614 22.6676 7.77631 22.6591C7.87648 22.6507 7.97359 22.6382 8.06789 22.6216C8.16219 22.6047 8.25188 22.5845 8.33673 22.5602C8.42157 22.536 8.50028 22.5086 8.57234 22.4779C8.64466 22.447 8.70906 22.4135 8.76579 22.3775C8.82252 22.3412 8.87031 22.3031 8.90941 22.2628C8.94851 22.2226 8.97815 22.1813 8.99808 22.1386C9.01776 22.0959 9.02773 22.0527 9.02773 22.0093C9.02773 21.9658 9.01776 21.9226 8.99808 21.88C8.97815 21.8373 8.94851 21.7959 8.90941 21.7558C8.87031 21.7154 8.82252 21.6773 8.76579 21.641C8.70906 21.605 8.64466 21.5715 8.57234 21.5406C8.50028 21.5099 8.42157 21.4826 8.33673 21.4583C8.25188 21.434 8.16219 21.4138 8.06789 21.397C7.97359 21.3804 7.87648 21.3678 7.77631 21.3594C7.67614 21.351 7.57494 21.3466 7.47298 21.3466Z" fill="#571AFF"/>
</svg>
