<svg width="24" height="24" viewBox="0 0 24 24" fill="none" xmlns="http://www.w3.org/2000/svg">
<path d="M14.532 22C13.096 22 12.052 21.656 11.392 20.968C10.736 20.28 10.408 19.54 10.408 18.744C10.408 18.452 10.464 18.208 10.58 18.012C10.692 17.816 10.856 17.652 11.048 17.544C11.248 17.428 11.492 17.372 11.78 17.372C12.072 17.372 12.316 17.428 12.512 17.544C12.712 17.66 12.868 17.816 12.98 18.012C13.096 18.212 13.152 18.456 13.152 18.744C13.152 19.096 13.068 19.38 12.9 19.604C12.732 19.824 12.532 19.972 12.304 20.04C12.504 20.316 12.816 20.508 13.244 20.624C13.672 20.748 14.1 20.808 14.528 20.808C15.124 20.808 15.66 20.648 16.144 20.328C16.624 20.008 16.98 19.532 17.208 18.908C17.436 18.28 17.552 17.572 17.552 16.776C17.552 15.912 17.424 15.176 17.172 14.564C16.928 13.944 16.564 13.488 16.084 13.188C15.616 12.896 15.076 12.74 14.528 12.74C14.16 12.74 13.704 12.892 13.152 13.2L12.144 13.704V13.2L16.68 7.152H10.408V13.428C10.408 13.948 10.524 14.376 10.752 14.712C10.98 15.048 11.332 15.216 11.808 15.216C12.176 15.216 12.524 15.092 12.86 14.848C13.2 14.6 13.492 14.3 13.732 13.956C13.764 13.888 13.8 13.836 13.848 13.808C13.888 13.772 13.944 13.752 13.996 13.752C14.08 13.752 14.18 13.792 14.292 13.88C14.4 14 14.452 14.144 14.452 14.304C14.44 14.412 14.42 14.52 14.396 14.624C14.136 15.204 13.776 15.648 13.32 15.952C12.872 16.252 12.348 16.412 11.808 16.412C10.448 16.412 9.508 16.144 8.988 15.612C8.468 15.076 8.208 14.352 8.208 13.436V7.156H5V5.988H8.208V3.328L7.476 2.596V2H9.608L10.408 2.412V5.984L18.7 5.964L19.524 6.788L14.44 11.872C14.748 11.748 15.072 11.672 15.404 11.644C15.952 11.644 16.572 11.82 17.26 12.172C17.956 12.516 18.488 12.988 18.864 13.592C19.24 14.188 19.48 14.76 19.584 15.312C19.7 15.864 19.756 16.352 19.756 16.78C19.756 17.756 19.548 18.668 19.136 19.508C18.724 20.348 18.096 20.972 17.256 21.388C16.416 21.792 15.508 22 14.532 22Z" fill="#2C7DF7"/>
</svg>
