<svg width="24" height="24" viewBox="0 0 24 24" fill="none" xmlns="http://www.w3.org/2000/svg">
<path d="M12 0C18.6274 0 24 5.37257 24 12C24 18.6274 18.6274 24 12 24C5.37257 24 0 18.6274 0 12C0 5.37257 5.37257 0 12 0Z" fill="#FFE81C"/>
<path d="M19.7979 6.50947L18.386 11.0955H14.8367L14.2888 11.5131L12.3654 19.4736H7.02026L8.02003 16.501L8.09546 16.211L5.90871 17.8711L8.93614 13.4708L9.6486 11.0955H4.81226L6.21111 6.50947H12.2687H12.7384L15.22 4.91998L14.2079 6.50947H19.7979Z" fill="#3F3F3F"/>
<path d="M17.8931 10.4091L18.8977 7.32135H14.4295L13.198 9.33598L16.0087 10.3961L17.8931 10.4091Z" fill="#FFE81C"/>
<path d="M8.13184 15.5355L14.4973 10.7115L11.6866 9.52937L11.8587 9.25028L13.5373 6.6192L13.5504 6.59314L8.72704 9.68365L11.2512 11.0016L8.13184 15.5355Z" fill="#FFE81C"/>
<path d="M11.7024 18.5787L13.1273 13.1362L8.89441 16.4331L8.20801 18.576H11.7024V18.5787Z" fill="#FFE81C"/>
<path d="M6.93933 9.76935L10.7574 7.33164L6.66299 7.32135L5.71533 10.3933L8.44242 10.4091L6.93933 9.76935Z" fill="#FFE81C"/>
</svg>
