<svg width="32" height="32" viewBox="0 0 32 32" fill="none" xmlns="http://www.w3.org/2000/svg">
<g clip-path="url(#clip0_2_511)">
<path d="M25.5923 14.2149C25.5732 14.2149 25.5569 14.2149 25.5378 14.2149C25.5487 12.1429 25.1185 10.384 24.4406 8.54074C22.943 8.76128 21.579 9.10434 20.0188 9.92389C19.0032 7.76203 17.6582 6.37888 16 5.33334C14.3419 6.37888 12.9969 7.76203 11.9785 9.92389C10.4184 9.10434 9.05431 8.76128 7.5568 8.54074C6.87884 10.384 6.44592 12.1429 6.45954 14.2149C6.44048 14.2149 6.42414 14.2149 6.40508 14.2149C4.98381 14.2149 3.92193 14.4709 2.66675 14.882C3.25214 17.4713 4.31946 19.7367 6.35063 21.7842C9.46817 24.9262 13.0459 25.6532 15.3575 26.0235C10.3857 23.9324 7.57042 19.5461 7.24913 15.0073C7.23007 14.784 7.21374 14.5743 7.21918 14.2449C7.20557 12.663 7.48873 11.032 8.06051 9.38479C9.33203 9.60533 10.5464 10.0192 11.679 10.6209C11.0909 12.1021 10.7887 13.6758 10.8214 15.0672C9.9746 14.7677 9.02164 14.4818 7.97338 14.3293C7.96794 14.5934 7.97883 14.8657 8.00606 15.0998C9.46 15.3313 10.6934 15.8214 11.6709 16.1916C11.6001 15.4756 11.3115 13.6568 12.3407 10.9994C12.4469 10.7189 12.5095 10.5828 12.6402 10.2942C13.2337 9.01994 14.2711 7.39446 16 6.23185C17.729 7.39446 18.7664 9.01994 19.3572 10.2969C18.0557 11.0811 16.9094 12.0912 16.0055 13.2456L15.9973 13.2347L15.9892 13.2456C15.2159 12.2546 14.2629 11.3724 13.1847 10.6454C13.0813 10.866 12.9778 11.1083 12.8879 11.3588C13.9144 12.0694 14.8156 12.9325 15.5345 13.8964C15.7441 14.185 15.7849 14.2149 15.9973 14.5716C17.8134 17.4523 17.8134 20.6515 15.9973 23.1292C14.3337 20.8584 14.1949 17.9832 15.5807 15.304C15.4337 15.059 15.2731 14.8167 15.1015 14.5961C13.2827 17.7953 13.4842 21.3131 15.7087 23.9841L16 24.3327L16.2914 23.9841C18.6792 21.1198 18.7364 17.2753 16.4656 13.8964C17.3097 12.7637 18.4042 11.7726 19.6594 11.0021C19.8881 10.8578 20.0488 10.7571 20.3238 10.6236C21.4564 10.0219 22.6735 9.60805 23.9423 9.38751C24.5141 11.0348 24.7972 12.6684 24.7836 14.2476C23.4331 14.3511 22.227 14.6969 21.1814 15.0672C21.2114 13.8583 20.9881 12.5105 20.5416 11.209C20.3102 11.3261 20.0733 11.4677 19.8745 11.5957C20.6478 13.929 20.3973 15.5327 20.3319 16.1944C21.4755 15.7615 22.9676 15.1625 24.7564 15.01C25.0477 14.98 25.1675 14.9773 25.5188 14.9746C26.5017 14.9637 27.4574 15.1026 28.443 15.3912C27.4628 19.2302 24.7264 22.3995 21.1515 23.9733C23.474 21.8577 25.0695 18.9389 25.4561 15.6716C25.2193 15.6716 24.9606 15.6798 24.6883 15.6988C24.1438 19.9872 21.3693 24.0413 16.6481 26.0262C18.9597 25.6559 22.5374 24.9289 25.6549 21.7869C27.6861 19.7394 28.7534 17.4741 29.3388 14.882C28.0781 14.4709 27.0163 14.2149 25.5923 14.2149ZM10.854 23.9705C7.27908 22.3968 4.54272 19.2275 3.56253 15.3884C4.54817 15.0998 5.50385 14.961 6.48676 14.9719C6.71275 18.5169 8.36818 21.7052 10.854 23.9705Z" fill="url(#paint0_linear_2_511)"/>
</g>
<defs>
<linearGradient id="paint0_linear_2_511" x1="7.50961" y1="6.72417" x2="24.0066" y2="24.3856" gradientUnits="userSpaceOnUse">
<stop stop-color="#F2D191"/>
<stop offset="1" stop-color="#DF9500"/>
</linearGradient>
<clipPath id="clip0_2_511">
<rect width="26.6667" height="20.6902" fill="white" transform="translate(2.66675 5.33334)"/>
</clipPath>
</defs>
</svg>
