<svg width="24" height="24" viewBox="0 0 24 24" fill="none" xmlns="http://www.w3.org/2000/svg">
<path d="M16.4477 13.0325C16.4614 13.0337 16.4746 13.0381 16.4862 13.0453C16.4978 13.0526 16.5075 13.0625 16.5144 13.0743C16.5212 13.086 16.5251 13.0992 16.5257 13.1128C16.5263 13.1263 16.5236 13.1398 16.5178 13.1521L12.5204 19.9604C12.5129 19.9722 12.5026 19.982 12.4904 19.9889C12.4782 19.9958 12.4644 19.9996 12.4503 20H10.0066C9.99235 20 9.97839 19.9963 9.9661 19.9893C9.95381 19.9823 9.94362 19.9722 9.93658 19.9601C9.92955 19.9479 9.9259 19.9341 9.92603 19.9201C9.92615 19.9061 9.93004 19.8924 9.93729 19.8804L13.9347 13.0721C13.9417 13.0601 13.9518 13.0501 13.9639 13.0432C13.9761 13.0362 13.9899 13.0326 14.0039 13.0325H16.4477ZM14.0715 11.0814C14.0574 11.081 14.0436 11.0771 14.0314 11.0702C14.0191 11.0633 14.0088 11.0536 14.0014 11.0418L9.93729 4.11976C9.93004 4.10773 9.92615 4.09402 9.92603 4.08003C9.9259 4.06604 9.92955 4.05227 9.93658 4.04012C9.94362 4.02797 9.95381 4.01787 9.9661 4.01085C9.97839 4.00384 9.99235 4.00016 10.0066 4.00018H12.4503C12.4644 4.00058 12.4782 4.00439 12.4904 4.0113C12.5026 4.01821 12.5129 4.02798 12.5204 4.03976L16.5845 10.9618C16.5917 10.9738 16.5956 10.9875 16.5957 11.0015C16.5959 11.0155 16.5922 11.0293 16.5852 11.0414C16.5781 11.0536 16.5679 11.0637 16.5557 11.0707C16.5434 11.0777 16.5294 11.0814 16.5152 11.0814H14.0715Z" fill="#E31337"/>
<path d="M14.5546 4.11976C14.5471 4.10735 14.5432 4.09316 14.5433 4.07872C14.5433 4.06427 14.5474 4.05012 14.5551 4.0378C14.5628 4.02549 14.5737 4.01547 14.5867 4.00884C14.5998 4.0022 14.6144 3.99921 14.629 4.00018H17.0762C17.0902 4.00015 17.1041 4.0038 17.1162 4.01076C17.1284 4.01771 17.1385 4.02772 17.1454 4.03976L21.8046 11.9605C21.8117 11.9725 21.8155 11.9862 21.8155 12.0001C21.8155 12.014 21.8117 12.0277 21.8046 12.0397L17.1454 19.9604C17.1385 19.9725 17.1284 19.9825 17.1162 19.9894C17.1041 19.9964 17.0902 20 17.0762 20H14.629C14.6147 20.0002 14.6007 19.9966 14.5883 19.9896C14.5759 19.9827 14.5655 19.9726 14.5584 19.9604C14.5513 19.9482 14.5476 19.9344 14.5476 19.9204C14.5477 19.9063 14.5516 19.8925 14.5589 19.8804L19.1899 12.0001L14.5546 4.11976ZM12.5658 11.9597C12.5733 11.9725 12.5772 11.987 12.5772 12.0018C12.5772 12.0166 12.5733 12.0311 12.5658 12.0439L7.88524 19.9604C7.87739 19.9717 7.86686 19.9809 7.85457 19.9873C7.84228 19.9937 7.8286 19.997 7.8147 19.997C7.80081 19.997 7.78712 19.9937 7.77483 19.9873C7.76254 19.9809 7.75201 19.9717 7.74416 19.9604L3.01146 12.0405C3.00395 12.0277 3 12.0132 3 11.9984C3 11.9836 3.00395 11.9691 3.01146 11.9563L7.692 4.03976C7.69985 4.02847 7.71038 4.01923 7.72267 4.01285C7.73496 4.00647 7.74865 4.00314 7.76254 4.00314C7.77644 4.00314 7.79012 4.00647 7.80241 4.01285C7.8147 4.01923 7.82523 4.02847 7.83308 4.03976L12.5658 11.9597Z" fill="#E31337"/>
</svg>
