<svg width="32" height="32" viewBox="0 0 32 32" fill="none" xmlns="http://www.w3.org/2000/svg">
<g clip-path="url(#clip0_2_486)">
<path d="M16.0003 2.66669C22.6584 2.66669 28.1898 7.56639 29.1799 13.9514C27.4557 13.6697 25.7058 13.7294 24.0327 14.105C23.4693 10.1784 20.089 7.13959 16.0088 7.13959C12.0993 7.13959 8.82142 9.92234 8.06171 13.6185C6.48254 13.0295 4.7924 12.7392 3.06812 12.7734C4.51071 6.9774 9.76039 2.66669 16.0003 2.66669Z" fill="#60C6EE"/>
<path d="M29.3334 16.0001C29.3334 17.1696 29.1797 18.3049 28.898 19.389C26.1665 18.7231 23.2386 19.517 21.2326 21.5315C19.2779 23.4863 18.4584 26.3032 19.0389 28.9835C18.2194 29.1713 17.3658 29.2908 16.4951 29.3249C17.0414 26.969 16.939 24.5447 16.2476 22.2998C16.828 21.045 17.6219 19.9097 18.6121 18.9195C21.4119 16.1196 25.4665 14.9161 29.3334 15.7014C29.3334 15.7953 29.3334 15.8977 29.3334 16.0001Z" fill="#3CA816"/>
<path d="M2.66675 16.0001C2.66675 15.4879 2.70089 14.9758 2.75211 14.4722C6.08971 14.3014 9.31634 15.5392 11.6979 17.9207C14.6855 20.9083 15.8379 25.2191 14.7709 29.2737C13.5076 29.1542 12.304 28.864 11.1687 28.4201C11.9369 25.6288 11.1601 22.607 9.08587 20.5328C7.43841 18.8853 5.15928 18.0402 2.85454 18.1768C2.7265 17.4683 2.66675 16.7427 2.66675 16.0001Z" fill="#3FAA39"/>
<path d="M12.8846 16.7255C11.9115 15.7524 10.8188 14.95 9.64087 14.3268C10.0933 11.2197 12.7651 8.82108 16.0002 8.82108C19.3122 8.82108 22.0523 11.3478 22.3938 14.5744C20.55 15.2402 18.8428 16.2987 17.4258 17.7157C16.6575 18.4839 15.9917 19.329 15.4369 20.2423C14.7881 18.9705 13.9345 17.7754 12.8846 16.7255Z" fill="#FFCF08"/>
<path d="M3.23877 19.8497C4.96305 19.8241 6.6532 20.4899 7.89093 21.7276C9.4701 23.3068 10.1018 25.5688 9.61521 27.6943C6.57637 26.0383 4.25456 23.2214 3.23877 19.8497Z" fill="#3CA816"/>
<path d="M20.6608 28.4967C20.2596 26.4139 20.9083 24.2458 22.4192 22.7264C23.9813 21.1643 26.2348 20.5326 28.3603 21.0021C26.9604 24.4506 24.152 27.1907 20.6608 28.4967Z" fill="#3FAA39"/>
</g>
<defs>
<clipPath id="clip0_2_486">
<rect width="26.6667" height="26.6581" fill="white" transform="translate(2.66675 2.66669)"/>
</clipPath>
</defs>
</svg>
