<svg width="24" height="24" viewBox="0 0 24 24" fill="none" xmlns="http://www.w3.org/2000/svg">
<circle cx="12" cy="12" r="12" fill="#EDF0F4"/>
<path fill-rule="evenodd" clip-rule="evenodd" d="M14.4669 8.72106C14.7104 7.99159 15.3094 7.39231 15.8898 6.90539L15.8896 6.90496C16.0212 6.81068 16.1145 6.84899 16.0948 6.96093C16.0855 7.06415 16.0668 7.16239 16.0482 7.2606C16.0295 7.35884 16.0108 7.45706 16.0015 7.56021C15.9642 7.84118 15.9642 8.10337 15.9829 8.38423C16.0021 8.7397 16.077 9.07651 16.2076 9.39467C16.338 9.69415 16.4884 9.99363 16.6376 10.2745C17.0128 11.0611 17.3869 11.8466 17.7424 12.6332C17.7827 12.7271 17.8229 12.82 17.863 12.9122C17.9907 13.2066 18.1157 13.4948 18.2293 13.7938C18.3786 14.2051 18.4532 14.5991 18.3226 15.0291C18.0604 15.8903 17.3495 16.5265 16.6946 17.0883C16.6777 17.1024 16.6561 17.122 16.6319 17.144C16.4956 17.2679 16.2757 17.4678 16.3391 17.1816C16.3809 16.9554 16.4378 16.7332 16.4946 16.5115C16.5649 16.2373 16.6349 15.9637 16.6762 15.6841C16.7587 15.0543 16.4608 14.3961 16.1966 13.8121C16.1621 13.736 16.1282 13.6611 16.0958 13.5876C15.8782 13.0946 15.6392 12.616 15.4007 12.1384C15.2497 11.8359 15.0988 11.5339 14.9538 11.229C14.5788 10.462 14.186 9.58221 14.4669 8.72106ZM5.89541 8.72126C6.13897 7.99061 6.73794 7.39165 7.31828 6.90559L7.31844 6.90548C7.44906 6.8112 7.54232 6.84951 7.52263 6.96043C7.5133 7.06347 7.49465 7.1616 7.47601 7.25972C7.45735 7.35797 7.43868 7.45622 7.42936 7.5594C7.39207 7.84036 7.39207 8.10255 7.41069 8.38341C7.4292 8.73886 7.50486 9.07564 7.63542 9.3938C7.76587 9.69333 7.91628 9.99281 8.06552 10.2737C8.44066 11.0602 8.81478 11.8458 9.17024 12.6323C9.2104 12.7261 9.25057 12.8187 9.29049 12.9107C9.41829 13.2052 9.54344 13.4937 9.65715 13.793C9.80639 14.2043 9.88098 14.5982 9.75042 15.0283C9.48823 15.8895 8.77728 16.5257 8.12234 17.0875C8.10545 17.1016 8.08386 17.1212 8.05964 17.1432C7.92333 17.2671 7.70351 17.467 7.76689 17.1808C7.80869 16.9541 7.86568 16.7315 7.92256 16.5092C7.99261 16.2355 8.0625 15.9624 8.10367 15.6833C8.18617 15.0535 7.88833 14.3952 7.62407 13.8112C7.58961 13.7351 7.55572 13.6602 7.52332 13.5868C7.30418 13.091 7.06375 12.6089 6.82391 12.1281C6.67474 11.829 6.52579 11.5304 6.38233 11.2292C6.00735 10.4622 5.6146 9.58241 5.89541 8.72126Z" fill="#165098"/>
<path d="M11.4728 5.48251C10.8178 6.02583 10.1069 6.68049 9.71313 7.44736C9.43226 7.99041 9.39497 8.55213 9.5442 9.11279C9.73175 9.78639 9.99292 10.46 10.2738 11.1149C10.8168 12.3689 11.5277 13.5482 12.0521 14.8209C12.2394 15.2696 12.4448 15.7753 12.4821 16.281C12.5196 16.8987 12.3132 17.5537 12.1454 18.134C12.1079 18.3029 11.9961 18.5268 12.0148 18.6958C12.0334 18.8264 12.1081 18.7704 12.1837 18.7145C12.5064 18.4661 12.8128 18.1972 13.1009 17.9093C13.8677 17.1797 14.7475 16.2055 14.673 15.0645C14.6355 14.5961 14.4108 14.1474 14.2242 13.7173C14.018 13.2126 13.7942 12.7266 13.5693 12.2395C13.1578 11.3224 12.7267 10.4239 12.278 9.52538C12.1288 9.20723 11.9409 8.90775 11.8293 8.58959C11.6604 8.1595 11.5857 7.70971 11.5671 7.261C11.5484 6.92422 11.5671 6.56877 11.6046 6.23194C11.6232 6.00721 11.6978 5.80184 11.6978 5.57695C11.7538 5.37073 11.6419 5.35222 11.4731 5.48267L11.4728 5.48251Z" fill="#5C9DD5"/>
</svg>
