<svg width="32" height="32" viewBox="0 0 32 32" fill="none" xmlns="http://www.w3.org/2000/svg">
<g clip-path="url(#clip0_2_608)">
<path d="M22.3673 5.33333H9.63731L2.66675 12.3039L16.0023 25.6394L29.3379 12.3039L22.3673 5.33333ZM21.5106 7.39668L23.0761 8.96214L20.452 11.5862L18.2003 9.33444L16.7424 7.87664L16.2625 7.39668H21.5106ZM5.58236 12.3039L8.20642 9.67983L10.8753 12.3487L12.3331 10.8909L9.66423 8.21754L10.4896 7.39668H13.3469L15.2846 9.33444L8.95102 15.668L5.58236 12.3039ZM18.6264 20.0953L16.0023 22.7193L14.1184 20.8354L16.0427 18.9111L14.5849 17.4533L12.6606 19.3776L10.4088 17.1258L16.7424 10.7922L18.9942 13.044L17.4422 14.596L18.9 16.0538L20.452 14.5018L21.9098 13.044L24.5339 10.4199L26.4178 12.3039L20.0842 18.6375L15.1904 13.7437L13.7326 15.2015L18.6264 20.0953Z" fill="url(#paint0_linear_2_608)"/>
</g>
<defs>
<linearGradient id="paint0_linear_2_608" x1="16.001" y1="6.85841" x2="16.001" y2="24.1857" gradientUnits="userSpaceOnUse">
<stop stop-color="#912481"/>
<stop offset="1" stop-color="#2D305B"/>
</linearGradient>
<clipPath id="clip0_2_608">
<rect width="26.6667" height="20.3017" fill="white" transform="translate(2.66675 5.33333)"/>
</clipPath>
</defs>
</svg>
