<svg width="32" height="32" viewBox="0 0 32 32" fill="none" xmlns="http://www.w3.org/2000/svg">
<circle cx="15.9998" cy="15.9999" r="13.3333" fill="#1F1F1F"/>
<path d="M18.8405 9.39752C22.0442 9.39752 24.5431 11.3838 25.1839 14.2031C25.8246 16.8942 24.3509 19.7135 21.7239 20.9309C19.9298 21.6998 18.1357 21.6998 16.2775 20.9309C16.0212 20.8028 15.9572 20.7387 16.0853 20.4183C16.4698 19.7776 16.8542 19.0728 17.2387 18.432C17.3668 18.2398 17.4309 18.1757 17.6872 18.3039C19.4813 19.0728 21.4676 18.1757 22.1083 16.4457C22.685 14.7798 21.5957 12.9216 19.8016 12.5372C19.225 12.409 18.5842 12.409 18.0075 12.6012C17.8153 12.6653 17.7513 12.6012 17.6872 12.4731C17.3668 11.7042 17.0464 10.9353 16.662 10.1664C16.5979 9.97419 16.5979 9.97419 16.7901 9.91012C17.495 9.52567 18.2638 9.39752 18.8405 9.39752Z" fill="#E44757"/>
<path d="M11.472 11.7042C10.5109 11.7042 9.5498 11.7042 8.58868 11.7042C8.33238 11.7042 8.26831 11.6401 8.26831 11.3838C8.26831 10.8072 8.26831 10.1664 8.26831 9.58976C8.26831 9.39754 8.33238 9.33347 8.52461 9.33347C10.5109 9.33347 12.4972 9.33347 14.4835 9.33347C14.6758 9.33347 14.7398 9.39754 14.7398 9.58976C14.7398 10.2305 14.7398 10.8072 14.7398 11.4479C14.7398 11.6401 14.6758 11.7042 14.4835 11.7042C13.4583 11.7042 12.4331 11.7042 11.472 11.7042Z" fill="white"/>
<path d="M11.472 21.1232C10.5109 21.1232 9.5498 21.1232 8.58868 21.1232C8.33238 21.1232 8.26831 21.0591 8.26831 20.8028C8.26831 20.2261 8.26831 19.5854 8.26831 19.0087C8.26831 18.8165 8.33238 18.7524 8.52461 18.7524C10.5109 18.7524 12.4972 18.7524 14.4835 18.7524C14.6758 18.7524 14.7398 18.8165 14.7398 19.0087C14.7398 19.6495 14.7398 20.2902 14.7398 20.8669C14.7398 21.0591 14.6758 21.1232 14.4835 21.1232C13.4583 21.1232 12.4331 21.1232 11.472 21.1232Z" fill="white"/>
<path d="M6.6665 16.4456C6.6665 15.6768 6.6665 14.9079 6.6665 14.0749C8.46059 14.0749 10.2547 14.0749 11.9847 14.0749C12.1769 14.0749 12.241 14.139 12.241 14.3312C12.241 14.9719 12.241 15.6127 12.241 16.1893C12.241 16.3816 12.1769 16.4456 11.9847 16.4456C10.2547 16.4456 8.46059 16.4456 6.6665 16.4456Z" fill="white"/>
</svg>
