<svg width="32" height="32" viewBox="0 0 32 32" fill="none" xmlns="http://www.w3.org/2000/svg">
<path d="M22.5307 17.1974C24.1407 15.5874 25.0269 13.4497 25.0269 11.1767C25.0269 8.90377 24.1407 6.76611 22.5307 5.1561C20.9274 3.55285 18.7898 2.66667 16.5101 2.66667C14.2371 2.66667 12.0994 3.55285 10.4894 5.16286C8.88618 6.76611 8 8.90377 8 11.1767C8 13.4497 8.88618 15.5874 10.4962 17.1974L14.1695 20.8706C14.4333 21.1345 14.8595 21.1345 15.1233 20.8706C15.3871 20.6068 15.3871 20.1806 15.1233 19.9168L11.768 16.5615L14.3927 13.9368L19.1483 18.6924L14.1762 23.6645C13.5471 24.2936 13.2021 25.1257 13.2021 26.0118C13.2021 26.898 13.5471 27.7301 14.1762 28.3592C14.8053 28.9883 15.6374 29.3333 16.5236 29.3333C17.4098 29.3333 18.2418 28.9883 18.871 28.3592C20.163 27.0671 20.163 24.9565 18.871 23.6645C18.6071 23.4006 18.181 23.4006 17.9171 23.6645C17.6533 23.9283 17.6533 24.3545 17.9171 24.6183C18.6883 25.3895 18.6883 26.641 17.9171 27.4121C17.5315 27.7977 17.0242 27.9871 16.5168 27.9871C16.0095 27.9871 15.5021 27.7977 15.1165 27.4121C14.7445 27.0401 14.5348 26.5395 14.5348 26.0118C14.5348 25.4842 14.7377 24.9904 15.1165 24.6115L22.5307 17.1974ZM11.4433 6.10993C14.2371 3.31608 18.783 3.31608 21.5769 6.10993C22.8689 7.402 23.6131 9.10671 23.6739 10.9264L22.118 9.36378C21.9895 9.23525 21.8204 9.1676 21.6445 9.1676C21.4686 9.1676 21.2927 9.23525 21.171 9.36378L19.1077 11.427L14.3048 6.62405C14.1762 6.49552 14.0071 6.42787 13.8312 6.42787C13.6553 6.42787 13.4795 6.49552 13.3577 6.62405L9.38001 10.6017C9.50178 8.97142 10.1918 7.36141 11.4433 6.10993ZM14.3792 12.3132C14.2033 12.3132 14.0274 12.3809 13.9056 12.5094L10.848 15.5671C10.1174 14.6268 9.65737 13.5444 9.46119 12.4214L13.8312 8.05141L18.1607 12.3809L16.4424 14.0991L14.8595 12.5162C14.7309 12.3876 14.5618 12.3132 14.3792 12.3132ZM17.3895 15.0462L21.6377 10.7979L23.5183 12.6785C23.2342 14.0179 22.5713 15.2559 21.5769 16.2435L20.0819 17.7385L17.3895 15.0462Z" fill="url(#paint0_linear_2_591)"/>
<defs>
<linearGradient id="paint0_linear_2_591" x1="16.5131" y1="3.24987" x2="16.5131" y2="29.5449" gradientUnits="userSpaceOnUse">
<stop offset="0.0268817" stop-color="#F1910D"/>
<stop offset="0.5" stop-color="#A41B5D"/>
<stop offset="1" stop-color="#2A2A5B"/>
</linearGradient>
</defs>
</svg>
