<svg width="32" height="32" viewBox="0 0 32 32" fill="none" xmlns="http://www.w3.org/2000/svg">
<g clip-path="url(#clip0_2_630)">
<path d="M27.5171 14.8069C27.5171 14.7878 27.5171 14.7687 27.5171 14.7496C27.2308 13.2989 25.9327 13.0889 24.6729 13.0698C23.5658 9.99655 21.1033 7.76319 18.0683 6.96147C18.3164 5.73981 18.011 4.46088 16.8848 3.56371C16.064 2.9147 14.8805 2.39931 13.8497 2.81926C12.8571 3.22012 12.5708 4.23181 13.5061 4.84265C14.0788 5.20533 14.5941 4.4227 14.2315 3.98366C14.2696 3.96457 14.2887 3.9264 14.3269 3.88822C14.6323 3.77369 14.9759 3.88822 15.2622 3.98366C15.8349 4.15546 16.3885 4.61358 16.7512 5.0908C17.1138 5.56801 17.1329 6.17884 16.9802 6.77059C16.5603 6.71332 16.1212 6.67515 15.6822 6.65606C11.6163 6.5797 8.06587 9.36663 6.6915 13.108C5.50801 13.108 4.03819 13.4134 4.00002 14.9023C3.96184 16.3149 5.0308 16.7539 6.1952 16.8493C6.3479 18.8154 7.09236 20.6098 8.21858 22.0605C8.06587 22.0605 7.91316 22.0414 7.76046 22.0223C7.49322 21.9841 7.3596 22.175 7.3596 22.385C5.66072 24.5229 9.44025 27.138 11.2918 25.4201C11.33 25.3819 11.3873 25.3437 11.4255 25.3055C11.6545 25.0574 11.8263 24.752 11.9218 24.4466C12.1699 23.7212 12.0172 22.9386 11.2346 22.5377C11.2155 22.5186 11.1964 22.4995 11.1773 22.4995C10.8337 22.3277 10.4519 22.2514 10.0893 22.1941C10.0129 22.175 9.91746 22.175 9.82202 22.1559C8.33311 20.6289 7.39777 18.5482 7.34051 16.2958C7.34051 15.9713 7.09236 15.7231 6.76785 15.704C6.09975 15.704 5.0308 15.7422 5.22168 14.7687C5.3553 14.0815 6.65332 14.2151 7.13053 14.2342C7.39777 14.2342 7.60775 14.0433 7.6841 13.8143C8.81032 10.2447 11.979 7.85863 15.7013 7.80137C15.9685 7.80137 16.2358 7.80137 16.503 7.82046C16.1785 8.31676 15.7585 8.71762 15.3768 8.96577C14.7469 9.34754 15.3195 10.3592 15.9685 9.97746C16.7321 9.50025 17.3429 8.81306 17.7247 8.03043C20.5498 8.73671 22.8404 10.9892 23.7376 13.8143C23.8139 14.0624 24.0239 14.2533 24.2911 14.2342C25.0356 14.2342 26.1427 14.0815 26.3909 14.9596C26.3527 15.7995 25.3028 15.704 24.6729 15.704C24.6729 15.704 24.6729 15.704 24.692 15.704C24.4056 15.7231 24.1193 15.9331 24.1002 16.2767C24.043 18.4146 23.2222 20.3616 21.9051 21.8123C21.5615 21.8505 21.237 21.8887 20.8934 21.9651C20.5498 22.0414 20.2062 22.1369 19.8817 22.2896C19.8626 22.3087 19.8435 22.3277 19.8053 22.3468C19.0227 22.7859 18.9845 23.5685 19.2708 24.2939C19.4045 24.6184 19.6144 24.9238 19.8435 25.1719C19.8817 25.2101 19.9198 25.2292 19.958 25.2674C21.8096 26.909 25.5319 23.9884 23.6612 21.9651C23.6039 21.8505 23.5276 21.7742 23.413 21.7169C24.4056 20.3044 25.0547 18.6246 25.1883 16.8493C26.4099 16.773 27.5934 16.3721 27.5553 14.8832C27.5362 14.8641 27.5171 14.845 27.5171 14.8069ZM10.0702 23.0531C10.8337 23.1867 11.3873 23.5112 11.0437 24.2557C10.9482 24.4466 10.8528 24.5802 10.7192 24.6947C9.55478 25.8591 7.016 24.1411 8.02769 22.9195C8.27585 22.9195 8.61944 22.9386 9.00121 22.9386C9.36389 22.9577 9.72657 22.9958 10.0702 23.0531ZM22.3823 24.5229C21.7142 24.962 20.9888 24.981 20.4543 24.542C20.3016 24.4275 20.168 24.2748 20.0535 24.0839C19.6335 23.3776 20.168 23.0149 20.9315 22.824C21.4851 22.6904 22.1723 22.6332 22.7068 22.595C22.8213 22.595 22.9167 22.5759 22.9931 22.5759C23.623 23.2631 23.0504 24.0839 22.3823 24.5229Z" fill="#3676D8"/>
<path d="M19.9961 15.3414C19.9961 14.826 19.5761 14.4061 19.0798 14.4061C18.5644 14.4061 18.1636 14.826 18.1636 15.3414C18.1636 15.8568 18.5835 16.2768 19.0798 16.2768C19.5761 16.2768 19.9961 15.8568 19.9961 15.3414Z" fill="#3676D8"/>
<path d="M12.6089 14.425C12.0935 14.425 11.6926 14.845 11.6926 15.3604C11.6926 15.8758 12.1126 16.2957 12.6089 16.2957C13.1243 16.2957 13.5251 15.8758 13.5251 15.3604C13.5251 14.8259 13.1243 14.425 12.6089 14.425Z" fill="#3676D8"/>
<path d="M12.0554 17.4983C12.0554 17.0401 11.4446 16.6775 10.681 16.6775C9.91747 16.6775 9.30664 17.0401 9.30664 17.4983C9.30664 17.9564 9.91747 18.3191 10.681 18.3191C11.4446 18.3191 12.0554 17.9564 12.0554 17.4983Z" fill="#FF758A"/>
<path d="M20.4352 16.6775C19.6716 16.6775 19.0608 17.0401 19.0608 17.4983C19.0608 17.9564 19.6716 18.3191 20.4352 18.3191C21.1987 18.3191 21.8095 17.9564 21.8095 17.4983C21.8286 17.0401 21.1987 16.6775 20.4352 16.6775Z" fill="#FF758A"/>
<path d="M19.2327 24.2939C18.9273 24.6947 18.5073 25.0574 18.1446 25.3819C18.0874 25.4392 18.0492 25.4774 17.9919 25.5346C17.152 26.3364 16.3312 27.1381 15.4913 27.9398C14.5751 27.0617 13.6779 26.1837 12.7617 25.3056C12.4944 25.0574 12.2463 24.8093 11.979 24.542C11.9408 24.5039 11.9218 24.4657 11.8836 24.4275C11.7881 24.7329 11.6163 25.0383 11.3873 25.2865C11.3491 25.3247 11.3109 25.3628 11.2537 25.401C11.5018 25.6873 11.75 25.9546 12.0172 26.2027C13.0289 27.1763 14.0597 28.1689 15.0714 29.1424C15.3004 29.3714 15.6631 29.3714 15.8922 29.1424C17.152 27.9207 18.4309 26.699 19.6908 25.4774C19.7671 25.401 19.8244 25.3247 19.9008 25.2483C19.8626 25.2101 19.8244 25.191 19.7862 25.1529C19.5763 24.9429 19.3663 24.6375 19.2327 24.2939Z" fill="#FF758A"/>
<path d="M18.8893 19.5406C18.8129 19.5025 18.7366 19.4643 18.6602 19.4261C18.5457 19.3879 18.4693 19.3689 18.3739 19.3879C17.3049 19.2734 16.3505 19.9988 15.606 20.8196C15.1479 20.1133 14.518 19.5406 13.6972 19.2925C11.9029 18.7008 10.6239 20.0942 10.1658 21.6404C10.1085 21.8313 10.0704 22.0031 10.0513 22.1749C10.433 22.2321 10.7957 22.3276 11.1393 22.4803C11.1584 22.4994 11.1775 22.4994 11.1966 22.5185C11.2157 21.4686 11.7501 20.476 12.8764 20.3615C13.8308 20.2469 14.6325 21.2395 14.9188 22.0222C15.1097 22.5185 15.6633 22.5757 15.9687 22.1558C16.4459 21.5068 17.4385 20.3233 18.3166 20.5523C19.1565 20.915 19.6146 21.5831 19.7292 22.3467C19.7482 22.3276 19.7673 22.3085 19.8055 22.2894C20.13 22.1176 20.4736 22.0222 20.8172 21.9649C20.6263 20.9723 19.9773 20.0751 18.8893 19.5406Z" fill="#FF758A"/>
</g>
<defs>
<clipPath id="clip0_2_630">
<rect width="23.5361" height="26.6667" fill="white" transform="translate(4 2.66666)"/>
</clipPath>
</defs>
</svg>
