<svg width="32" height="32" viewBox="0 0 32 32" fill="none" xmlns="http://www.w3.org/2000/svg">
<g clip-path="url(#clip0_2_585)">
<path d="M9.48451 4.38698C8.2801 4.98701 7.20613 7.18278 6.48435 8.56112L6.48 8.55677L5.64952 10.0264L4.07552 12.6613C3.13634 14.2179 2.66675 15.0658 2.66675 16.0137C2.66675 17.0877 3.32331 18.1138 4.26249 19.6704H14.7196C14.7544 19.6748 14.7848 19.6748 14.8239 19.6704C14.9239 19.6661 15.0413 19.6617 15.1848 19.7748C15.5544 20.0661 15.3457 20.6661 14.8761 20.6661H4.87122L5.64517 21.9966C6.12346 22.8228 6.55826 23.6141 6.9235 24.2837C7.9366 26.1273 8.44532 27.0534 9.33233 27.5622H9.33668C10.2237 28.0752 11.2759 28.0535 13.3804 28.0057C14.0587 27.9926 14.8631 27.9752 16.0023 27.9752C17.1414 27.9752 17.9458 27.9926 18.6241 28.0057C20.6156 28.0491 21.6591 28.0709 22.52 27.6404C23.9027 26.9534 25.4636 23.575 26.355 22.001L27.9246 19.3661C28.8638 17.8094 29.3334 16.9616 29.3334 16.0137C29.3334 14.9397 28.6769 13.9136 27.7377 12.357H17.1241C17.0719 12.357 17.0154 12.3526 16.9632 12.3309V12.3265L16.8284 12.257L16.8153 12.2439C16.4501 11.9526 16.6588 11.3569 17.1241 11.3569H27.1289L26.355 10.0264C25.8767 9.20028 25.4419 8.40894 25.0767 7.73933C24.0636 5.89576 23.5548 4.96962 22.6678 4.46089C21.7765 3.95652 20.7243 3.97826 18.6241 4.02174C17.9458 4.03478 17.1414 4.05218 16.0023 4.05218C14.8631 4.05218 14.0587 4.03478 13.3804 4.02174C12.8412 4.0087 12.376 4 11.9586 4C10.8411 4 10.1106 4.07392 9.48451 4.38698ZM18.6459 5.26963C20.5155 5.2305 21.4547 5.20876 22.0417 5.54791C22.6287 5.88706 23.0766 6.70884 23.981 8.34806C24.2505 8.83939 24.5636 9.40464 24.9636 10.109H17.1241C16.2631 10.109 15.537 10.7351 15.3979 11.57C13.7717 10.6917 11.4759 9.20028 10.3889 7.74803C9.87149 7.05669 9.47147 6.21751 10.1324 5.46965C10.7281 5.21746 11.6585 5.2392 13.3543 5.27398C14.1369 5.29137 15.0674 5.30877 16.0023 5.30877C16.9371 5.30442 17.8632 5.28703 18.6459 5.26963ZM19.1459 20.5009C17.2936 19.24 14.6804 18.1921 12.6195 17.1703L11.2716 16.492C8.25401 14.9223 6.23216 13.3092 7.60615 9.10463V9.10028L8.66707 7.16104C9.01492 8.25241 9.89758 9.1568 10.7454 9.92206C13.363 12.2091 15.5327 12.9483 18.472 14.2962L19.659 14.9223L21.0417 15.7702L22.1982 16.6268C23.7896 17.8442 25.2028 19.8313 24.7375 21.9358C24.5245 22.9054 23.6288 24.3011 23.1722 25.1142C22.7244 23.2184 20.6112 21.501 19.1459 20.5009ZM5.14949 13.3092L5.87127 12.1004C5.97562 13.6484 6.60174 14.7354 7.68441 15.6876C8.89752 16.7572 10.5672 17.5486 12.3151 18.4182H4.96687C3.51027 15.9789 3.59289 15.905 5.14949 13.3092ZM19.8807 13.6092H27.0333C27.729 14.7745 28.0812 15.4354 28.0812 16.0093C28.0812 16.6355 27.6725 17.3572 26.8507 18.7138L26.0158 20.1139C25.4593 17.1094 22.2374 14.8875 19.8807 13.6092ZM9.95845 26.4795C9.37581 26.1403 8.92361 25.3186 8.01921 23.6793C7.74963 23.188 7.44092 22.6228 7.03655 21.9184H14.8718C15.7414 21.9184 16.4762 21.2749 16.6023 20.4313C17.2284 20.7618 17.8458 21.1357 18.4328 21.5357C19.5285 22.2836 22.8287 24.7185 21.8026 26.5838C21.2025 26.8099 20.2807 26.7882 18.6415 26.7534C17.8589 26.736 16.9284 26.7186 15.9936 26.7186C15.0587 26.7186 14.1326 26.7404 13.3456 26.7534C12.8064 26.7665 12.3412 26.7752 11.9455 26.7752C10.9715 26.7752 10.3759 26.7186 9.95845 26.4795Z" fill="url(#paint0_linear_2_585)"/>
</g>
<defs>
<linearGradient id="paint0_linear_2_585" x1="7.53964" y1="3.49653" x2="25.0523" y2="29.4014" gradientUnits="userSpaceOnUse">
<stop stop-color="#3EDC81"/>
<stop offset="1" stop-color="#114FEE"/>
</linearGradient>
<clipPath id="clip0_2_585">
<rect width="26.6667" height="24.023" fill="white" transform="translate(2.66675 4)"/>
</clipPath>
</defs>
</svg>
