<svg width="24" height="24" viewBox="0 0 24 24" fill="none" xmlns="http://www.w3.org/2000/svg">
<path d="M16.583 8.71385C16.2509 8.51812 15.8192 8.51812 15.4539 8.71385L12.8634 10.2145L11.1033 11.1931L8.51291 12.6937C8.18081 12.8894 7.74907 12.8894 7.38376 12.6937L5.32472 11.5193C4.99262 11.3236 4.76015 10.9648 4.76015 10.5733V8.25714C4.76015 7.86568 4.95941 7.50684 5.32472 7.31111L7.35055 6.16935C7.68265 5.97362 8.11439 5.97362 8.4797 6.16935L10.5055 7.31111C10.8376 7.50684 11.0701 7.86568 11.0701 8.25714V9.75775L12.8302 8.74647V7.24587C12.8302 6.8544 12.631 6.49557 12.2657 6.29984L8.51291 4.1468C8.18081 3.95107 7.74907 3.95107 7.38376 4.1468L3.56458 6.29984C3.19926 6.49557 3 6.8544 3 7.24587V11.5846C3 11.976 3.19926 12.3349 3.56458 12.5306L7.38376 14.6837C7.71586 14.8794 8.1476 14.8794 8.51291 14.6837L11.1033 13.2157L12.8634 12.2044L15.4539 10.7364C15.786 10.5407 16.2177 10.5407 16.583 10.7364L18.6088 11.8782C18.9409 12.0739 19.1734 12.4328 19.1734 12.8242V15.1403C19.1734 15.5318 18.9742 15.8906 18.6088 16.0864L16.583 17.2608C16.2509 17.4565 15.8192 17.4565 15.4539 17.2608L13.4281 16.119C13.0959 15.9233 12.8634 15.5644 12.8634 15.173V13.6724L11.1033 14.6837V16.1842C11.1033 16.5757 11.3026 16.9345 11.6679 17.1303L15.4871 19.2833C15.8192 19.479 16.2509 19.479 16.6162 19.2833L20.4354 17.1303C20.7675 16.9345 21 16.5757 21 16.1842V11.8455C21 11.4541 20.8007 11.0953 20.4354 10.8995L16.583 8.71385Z" fill="#8247E5"/>
</svg>
