<svg width="32" height="32" viewBox="0 0 32 32" fill="none" xmlns="http://www.w3.org/2000/svg">
<path d="M22.7426 4H9.39347L2.72681 15.2939L9.39347 26.5877H22.7268L29.3935 15.2939L22.7426 4ZM22.1423 25.429L22.0949 25.5217H10.0412L4.00643 15.2939L10.0412 5.08149H10.136L11.5104 7.39898L12.9638 4.92699H13.1533L11.6052 7.55348L12.3319 8.78947L14.6225 4.92699H14.8753L12.4582 9.02122L13.1533 10.18L16.2497 4.92699H16.6289L13.3429 10.5044L13.959 11.555L17.8611 4.92699H18.3666L14.2118 11.9876L14.7805 12.9455L19.5041 4.92699H20.136L15.0807 13.4862L15.5704 14.3205L21.1312 4.92699H21.9053L15.9812 14.9694L16.4551 15.7728L22.3951 5.71494L22.9006 6.58013L16.9606 16.638L22.1423 25.429Z" fill="#725DFF"/>
</svg>
