<svg width="24" height="24" viewBox="0 0 24 24" fill="none" xmlns="http://www.w3.org/2000/svg">
<circle cx="12" cy="12" r="12" fill="#EDF0F4"/>
<path fill-rule="evenodd" clip-rule="evenodd" d="M14.4669 8.72109C14.7104 7.99162 15.3094 7.39234 15.8898 6.90542L15.8896 6.90499C16.0212 6.81071 16.1145 6.84902 16.0948 6.96096C16.0855 7.06418 16.0668 7.16242 16.0482 7.26063C16.0295 7.35887 16.0108 7.45709 16.0015 7.56024C15.9642 7.84121 15.9642 8.1034 15.9829 8.38426C16.0021 8.73973 16.077 9.07654 16.2076 9.3947C16.338 9.69418 16.4884 9.99366 16.6376 10.2745C17.0128 11.0611 17.3869 11.8466 17.7424 12.6332C17.7827 12.7272 17.8229 12.82 17.863 12.9122C17.9907 13.2066 18.1157 13.4948 18.2293 13.7939C18.3786 14.2051 18.4532 14.5991 18.3226 15.0292C18.0604 15.8904 17.3495 16.5265 16.6946 17.0883C16.6777 17.1024 16.6561 17.122 16.6319 17.1441C16.4956 17.268 16.2757 17.4678 16.3391 17.1816C16.3809 16.9555 16.4378 16.7333 16.4946 16.5115C16.5649 16.2373 16.6349 15.9637 16.6762 15.6841C16.7587 15.0543 16.4608 14.3962 16.1966 13.8122C16.1621 13.736 16.1282 13.6611 16.0958 13.5877C15.8782 13.0946 15.6392 12.616 15.4007 12.1384C15.2497 11.836 15.0988 11.534 14.9538 11.229C14.5788 10.4621 14.186 9.58224 14.4669 8.72109ZM5.89541 8.72129C6.13897 7.99064 6.73794 7.39168 7.31828 6.90562L7.31844 6.90551C7.44906 6.81123 7.54232 6.84954 7.52263 6.96046C7.5133 7.0635 7.49465 7.16163 7.47601 7.25975C7.45735 7.358 7.43868 7.45625 7.42936 7.55943C7.39207 7.84039 7.39207 8.10258 7.41069 8.38344C7.4292 8.73889 7.50486 9.07567 7.63542 9.39383C7.76587 9.69336 7.91628 9.99284 8.06552 10.2737C8.44066 11.0603 8.81478 11.8458 9.17024 12.6324C9.2104 12.7261 9.25057 12.8187 9.29049 12.9107C9.41829 13.2053 9.54344 13.4937 9.65715 13.7931C9.80639 14.2043 9.88098 14.5982 9.75042 15.0283C9.48823 15.8895 8.77728 16.5257 8.12234 17.0875C8.10545 17.1016 8.08386 17.1212 8.05964 17.1432C7.92333 17.2672 7.70351 17.467 7.76689 17.1808C7.80869 16.9542 7.86568 16.7315 7.92256 16.5092C7.99261 16.2355 8.0625 15.9624 8.10367 15.6833C8.18617 15.0535 7.88833 14.3952 7.62407 13.8112C7.58961 13.7351 7.55572 13.6602 7.52332 13.5868C7.30418 13.091 7.06375 12.609 6.82391 12.1281C6.67474 11.829 6.52579 11.5304 6.38233 11.2292C6.00735 10.4623 5.6146 9.58244 5.89541 8.72129Z" fill="#165098"/>
<path d="M11.4728 5.48254C10.8178 6.02586 10.1069 6.68052 9.71313 7.44739C9.43226 7.99044 9.39497 8.55217 9.5442 9.11282C9.73175 9.78643 9.99292 10.46 10.2738 11.115C10.8168 12.3689 11.5277 13.5483 12.0521 14.8209C12.2394 15.2696 12.4448 15.7753 12.4821 16.2811C12.5196 16.8987 12.3132 17.5537 12.1454 18.134C12.1079 18.303 11.9961 18.5268 12.0148 18.6959C12.0334 18.8264 12.1081 18.7705 12.1837 18.7145C12.5064 18.4662 12.8128 18.1972 13.1009 17.9093C13.8677 17.1797 14.7475 16.2056 14.673 15.0646C14.6355 14.5962 14.4108 14.1474 14.2242 13.7174C14.018 13.2127 13.7942 12.7266 13.5693 12.2395C13.1578 11.3224 12.7267 10.4239 12.278 9.52542C12.1288 9.20726 11.9409 8.90778 11.8293 8.58962C11.6604 8.15953 11.5857 7.70974 11.5671 7.26103C11.5484 6.92425 11.5671 6.5688 11.6046 6.23197C11.6232 6.00724 11.6978 5.80187 11.6978 5.57698C11.7538 5.37076 11.6419 5.35225 11.4731 5.4827L11.4728 5.48254Z" fill="#5C9DD5"/>
</svg>
