<svg width="24" height="24" viewBox="0 0 24 24" fill="none" xmlns="http://www.w3.org/2000/svg">
<path d="M12 22C17.5228 22 22 17.5228 22 12C22 6.47715 17.5228 2 12 2C6.47715 2 2 6.47715 2 12C2 17.5228 6.47715 22 12 22Z" fill="#00EF8B"/>
<path d="M16.388 10.436H13.564V13.26H16.388V10.436Z" fill="white"/>
<path d="M10.742 14.318C10.742 14.9034 10.2675 15.378 9.68205 15.378C9.09663 15.378 8.62205 14.9034 8.62205 14.318C8.62205 13.7326 9.09663 13.258 9.68205 13.258H10.742V10.436H9.68205C7.53808 10.436 5.80005 12.174 5.80005 14.318C5.80005 16.4619 7.53808 18.2 9.68205 18.2C11.826 18.2 13.564 16.4619 13.564 14.318V13.258H10.742V14.318Z" fill="white"/>
<path d="M14.6241 9.02401H17.8001V6.20001H14.6241C12.481 6.20222 10.7443 7.93896 10.7421 10.082V10.436H13.5641V10.082C13.5652 9.49737 14.0394 9.02401 14.6241 9.02401Z" fill="white"/>
<path d="M10.7421 13.258H13.5641V10.436H10.7421V13.258Z" fill="#16FF99"/>
</svg>
