<svg width="32" height="32" viewBox="0 0 32 32" fill="none" xmlns="http://www.w3.org/2000/svg">
<g clip-path="url(#clip0_2_596)">
<path d="M16.0001 29.3333C8.64754 29.3333 2.66675 23.3525 2.66675 16C2.66675 12.1408 4.34942 8.46456 7.25751 5.92227C7.6416 5.59305 8.22688 5.62963 8.57438 6.01371C8.92189 6.3978 8.86702 6.98308 8.48293 7.33059C5.97722 9.52537 4.53232 12.6712 4.53232 16C4.53232 22.3283 9.67178 27.4678 16.0001 27.4678C22.3284 27.4678 27.4678 22.3283 27.4678 16C27.4678 9.67169 22.3284 4.53223 16.0001 4.53223C14.482 4.53223 13.0005 4.82487 11.6105 5.41015C11.135 5.61134 10.5863 5.37357 10.4034 4.89803C10.2022 4.42249 10.44 3.8738 10.9155 3.6909C12.525 3.01417 14.2443 2.66666 16.0001 2.66666C23.3526 2.66666 29.3334 8.64746 29.3334 16C29.3334 23.3525 23.3526 29.3333 16.0001 29.3333Z" fill="#3D174F"/>
<path d="M16.0001 25.6754C10.6777 25.6754 6.34302 21.3407 6.34302 16.0183C6.34302 10.696 10.6777 6.36128 16.0001 6.36128C20.0604 6.36128 23.7184 8.94016 25.0902 12.7627C25.4742 13.8053 25.6571 14.9027 25.6571 16.0366C25.6571 16.5488 25.2365 16.9694 24.7244 16.9694C24.2122 16.9694 23.7916 16.5488 23.7916 16.0366C23.7916 15.1221 23.6453 14.2442 23.3343 13.4029C22.2369 10.2753 19.2923 8.20856 16.0001 8.20856C11.702 8.20856 8.1903 11.7019 8.1903 16.0183C8.1903 20.3348 11.6837 23.8281 16.0001 23.8281C16.5122 23.8281 16.9329 24.2488 16.9329 24.7609C16.9329 25.273 16.5122 25.6754 16.0001 25.6754Z" fill="#7C2A8B"/>
<path d="M16.0001 21.999C12.6896 21.999 10.001 19.3104 10.001 15.9999C10.001 12.6894 12.6896 10.0008 16.0001 10.0008C16.5122 10.0008 16.9328 10.4215 16.9328 10.9336C16.9328 11.4457 16.5122 11.8664 16.0001 11.8664C13.7138 11.8664 11.8665 13.7137 11.8665 15.9999C11.8665 18.2861 13.7138 20.1334 16.0001 20.1334C18.2863 20.1334 20.1336 18.2861 20.1336 15.9999C20.1336 15.4878 20.5542 15.0671 21.0664 15.0671C21.5785 15.0671 21.9991 15.4878 21.9991 15.9999C21.9991 19.3104 19.3105 21.999 16.0001 21.999Z" fill="#ED1849"/>
</g>
<defs>
<clipPath id="clip0_2_596">
<rect width="26.6667" height="26.6667" fill="white" transform="translate(2.66675 2.66666)"/>
</clipPath>
</defs>
</svg>
