<svg width="18" height="18" viewBox="0 0 18 18" fill="none" xmlns="http://www.w3.org/2000/svg">
<path fill-rule="evenodd" clip-rule="evenodd" d="M13.8105 4.8105L11.6895 2.6895C11.4083 2.40825 11.0265 2.25 10.629 2.25H5.25C4.42125 2.25 3.75 2.92125 3.75 3.75V14.25C3.75 15.0788 4.42125 15.75 5.25 15.75H12.75C13.5788 15.75 14.25 15.0788 14.25 14.25V5.871C14.25 5.4735 14.0918 5.09175 13.8105 4.8105V4.8105Z" stroke="white" stroke-width="1.5" stroke-linecap="round" stroke-linejoin="round"/>
<path d="M14.25 6H11.25C10.836 6 10.5 5.664 10.5 5.25V2.25" stroke="white" stroke-width="1.5" stroke-linecap="round" stroke-linejoin="round"/>
<path d="M6.75 12H11.25" stroke="white" stroke-width="1.5" stroke-miterlimit="10" stroke-linecap="round" stroke-linejoin="round"/>
<path d="M7.5 10.5V9.75" stroke="white" stroke-width="1.5" stroke-miterlimit="10" stroke-linecap="round" stroke-linejoin="round"/>
<path d="M9 10.5V6.75" stroke="white" stroke-width="1.5" stroke-miterlimit="10" stroke-linecap="round" stroke-linejoin="round"/>
<path d="M10.5 10.5V8.25" stroke="white" stroke-width="1.5" stroke-miterlimit="10" stroke-linecap="round" stroke-linejoin="round"/>
</svg>
