<svg width="131" height="56" viewBox="0 0 131 56" fill="none" xmlns="http://www.w3.org/2000/svg">
<path d="M15 27L28.6465 29.3719C29.1218 29.4545 29.5512 29.7061 29.8556 30.0804L31.1507 31.6727C31.7723 32.4368 32.8576 32.6347 33.7088 32.139L36.9729 30.238C37.5889 29.8792 38.3742 30.2416 38.501 30.9431V30.9431C38.6527 31.7826 39.7023 32.0821 40.2743 31.4492L41.1099 30.5246C41.645 29.9325 42.5286 29.8115 43.2031 30.238L44.9917 31.369C45.1293 31.456 45.2558 31.5595 45.3683 31.6771L51.7806 38.3823C52.1579 38.7768 52.6801 39 53.226 39H59.5154C60.1893 39 60.818 38.6606 61.1876 38.0971L68.0035 27.7077C68.7305 26.5995 70.3149 26.4922 71.1848 27.4922L71.679 28.0604C72.3799 28.8662 73.5903 28.9791 74.4282 28.3169L78.0025 25.4918C78.9839 24.7161 80.4285 25.0216 81.0119 26.1282L81.2933 26.662C81.411 26.8853 81.57 27.0843 81.7617 27.2485L88.2479 32.8022C88.7569 33.238 89.4503 33.39 90.0949 33.207L95.1125 31.7825C95.7366 31.6053 96.2359 31.1364 96.452 30.5248L99.3461 22.3337C99.6285 21.5344 100.384 21 101.232 21H101.894C102.39 21 102.868 20.8162 103.235 20.4842L106.242 17.7683C106.769 17.2924 107.508 17.1315 108.185 17.3455L115 19.5" stroke="#75EA2C"/>
<path d="M131 55H0V57H131V55Z" fill="#262626" mask="url(#path-1-inside-1_1_4169)"/>
</svg>
