<svg width="131" height="56" viewBox="0 0 131 56" fill="none" xmlns="http://www.w3.org/2000/svg">
<path d="M15 23.3396L19.9738 19.8608C20.7527 19.3159 21.8076 19.3947 22.497 20.0491L25.6145 23.0083C25.8439 23.2261 26.1216 23.3863 26.4249 23.4759L30.2819 24.615C30.7126 24.7422 31.088 25.0106 31.3476 25.3771L37.8958 34.6226L43.3115 40.3714C43.6894 40.7726 44.2161 41 44.7672 41H49.8634C50.6331 41 51.3345 40.5583 51.6671 39.8641L55.6185 31.616C56.1132 30.5834 57.3721 30.1761 58.3779 30.7232L61.1328 32.2219C62.0837 32.7392 63.2736 32.406 63.8176 31.4702L67.9656 24.3345C68.3236 23.7186 68.9823 23.3396 69.6947 23.3396H73.0925C73.9212 23.3396 74.6641 23.8507 74.9603 24.6246L77.1767 30.4149C77.7965 32.0341 80.0425 32.1515 80.8277 30.6056L82.3143 27.6788C82.9854 26.3575 84.8102 26.1995 85.6984 27.3858L88.1852 30.707C88.4204 31.0212 88.7429 31.2592 89.1124 31.3914L92.1925 32.4934C93.2146 32.8591 94.3418 32.3426 94.7323 31.3297L99.021 20.2051C99.3184 19.4335 100.06 18.9245 100.887 18.9245H101.671C102.153 18.9245 102.619 18.7504 102.982 18.4342L106.1 15.7257C106.619 15.2741 107.335 15.1216 107.993 15.3219L115 17.4528" stroke="#FF4775"/>
<path d="M131 55H0V57H131V55Z" fill="#262626" mask="url(#path-1-inside-1_1_4163)"/>
</svg>
