<svg width="131" height="56" viewBox="0 0 131 56" fill="none" xmlns="http://www.w3.org/2000/svg">
<path d="M15 37L27.2127 27.8617C28.0701 27.2201 29.2806 27.3677 29.9588 28.1965L30.6141 28.9975C31.2353 29.7566 32.3152 29.9532 33.1641 29.4618L36.6035 27.4707C37.2397 27.1024 38.0486 27.4764 38.1801 28.1997V28.1997C38.3375 29.0651 39.4187 29.3748 40.0104 28.724L40.8798 27.7676C41.434 27.1581 42.3453 27.0335 43.0427 27.4719L44.9818 28.6906C45.0673 28.7444 45.1487 28.8046 45.2252 28.8707L51.0928 33.9418C51.4561 34.2558 51.9203 34.4286 52.4005 34.4286H59.0891C59.7611 34.4286 60.3882 34.0911 60.7584 33.5302L67.8837 22.7337C68.6111 21.6314 70.1883 21.5243 71.058 22.5183L71.6805 23.2296C72.3808 24.0299 73.585 24.1422 74.4212 23.4852L78.2485 20.4782C79.2287 19.7081 80.6669 20.0126 81.251 21.1139L81.5871 21.7477C81.7055 21.971 81.8652 22.1699 82.0577 22.3337L89.3919 28.5762C89.5439 28.7056 89.6757 28.8571 89.7829 29.0255L92.8873 33.9036C93.1049 34.2455 93.4212 34.5132 93.7943 34.6713L98.9162 36.8415C99.1631 36.9461 99.4284 37 99.6965 37H101.47C101.963 37 102.439 36.8177 102.806 36.4881L105.97 33.6474C106.495 33.1753 107.231 33.0157 107.905 33.2275L115 35.4571" stroke="#75EA2C"/>
<path d="M131 55H0V57H131V55Z" fill="#262626" mask="url(#path-1-inside-1_1_4159)"/>
</svg>
