<svg width="131" height="56" viewBox="0 0 131 56" fill="none" xmlns="http://www.w3.org/2000/svg">
<path d="M15 46L25.9605 42.8604C26.7247 42.6415 27.546 42.896 28.0526 43.5086L29.0389 44.7015C29.6593 45.4518 30.7297 45.6464 31.5745 45.1625L34.9463 43.2308C35.5692 42.8739 36.3578 43.2398 36.4875 43.9459V43.9459C36.6428 44.7907 37.6968 45.0946 38.2779 44.462L39.1404 43.5232C39.6856 42.9297 40.5759 42.8082 41.2602 43.2339L42.0275 43.7111C42.7798 44.179 43.7501 44.0963 44.4123 43.5079L49.48 39.0049C49.846 38.6797 50.3187 38.5 50.8084 38.5H57.4642C58.062 38.5 58.6285 38.2326 59.0084 37.7711L67.208 27.8098C67.9898 26.86 69.4356 26.8344 70.2505 27.756L70.991 28.5935C71.6903 29.3843 72.8836 29.4955 73.7169 28.8476L77.4377 25.9547C78.4158 25.1942 79.8429 25.4969 80.4281 26.5889L80.7353 27.162C80.8549 27.3853 81.0159 27.5838 81.2097 27.747L85.9917 31.7749C87.1675 32.7653 88.9746 32.114 89.2482 30.6011L91.3487 18.9875C91.4611 18.3661 91.8604 17.8343 92.4258 17.5529L98.0482 14.7552C98.9239 14.3195 99.9863 14.581 100.56 15.3735L100.629 15.4687C101.484 16.651 103.276 16.5489 103.992 15.2772L106.168 11.4092C106.631 10.5872 107.605 10.2001 108.505 10.4802L115 12.5" stroke="#75EA2C"/>
<path d="M131 55H0V57H131V55Z" fill="#262626" mask="url(#path-1-inside-1_1_4167)"/>
</svg>
