<svg width="131" height="56" viewBox="0 0 131 56" fill="none" xmlns="http://www.w3.org/2000/svg">
<path d="M115 43L102.838 34.1057C101.988 33.4837 100.801 33.6282 100.124 34.4362L99.4656 35.223C98.8462 35.9629 97.7869 36.155 96.9471 35.6799L93.4929 33.7253C92.8648 33.3699 92.0736 33.7385 91.9416 34.448V34.448C91.7837 35.2969 90.7264 35.604 90.1383 34.9717L89.2551 34.0221C88.7021 33.4277 87.8066 33.3057 87.1148 33.7307L86.3059 34.2277C85.5585 34.6868 84.5991 34.6054 83.9398 34.0268L78.7781 29.4968C78.4132 29.1766 77.9443 29 77.4589 29H70.8103C70.1458 29 69.5247 28.6699 69.1528 28.1192L62.0679 17.6267C61.339 16.5471 59.7891 16.4414 58.9203 17.4118L58.2879 18.1182C57.5901 18.8976 56.4095 19.0075 55.5798 18.3704L51.747 15.4272C50.7716 14.6781 49.3576 14.9786 48.771 16.0596L48.3394 16.8551C48.287 16.9515 48.2427 17.0521 48.2069 17.1558L41.7759 35.7678C41.7226 35.922 41.6507 36.0691 41.5616 36.2059L40.182 38.3249C39.3047 39.6722 37.2768 39.4862 36.6593 38.0017L31.1392 24.7318C30.8289 23.986 30.1004 23.5 29.2926 23.5H28.4499C27.9644 23.5 27.4955 23.3234 27.1307 23.0032L23.9781 20.2365C23.4565 19.7787 22.735 19.6241 22.0716 19.8278L15 22" stroke="#FF4775"/>
<path d="M131 55H0V57H131V55Z" fill="#262626" mask="url(#path-1-inside-1_1_4155)"/>
</svg>
