<svg width="131" height="56" viewBox="0 0 131 56" fill="none" xmlns="http://www.w3.org/2000/svg">
<path d="M15 12L23.5206 23.4959C24.4255 24.7169 26.3078 24.5223 26.9438 23.142L28.4916 19.7827C29.1834 18.2813 31.2945 18.2197 32.0726 19.6782L32.5825 20.6339C33.4166 22.1973 35.7215 21.984 36.2545 20.294L36.9265 18.1632C36.9694 18.027 37.0268 17.8958 37.0977 17.7719L38.2967 15.675C39.1353 14.2084 41.3021 14.378 41.9024 15.9572L42.9935 18.8275C43.1194 19.1588 43.3311 19.4506 43.6068 19.6732L49.4502 24.3896C49.8059 24.6767 50.2492 24.8333 50.7063 24.8333H56.7539C57.5439 24.8333 58.2599 25.2984 58.5811 26.0202L65.1846 40.8585C65.7679 42.1691 67.5005 42.4576 68.477 41.4068L68.6056 41.2683C69.2988 40.5223 70.4417 40.4162 71.2603 41.0219L74.8162 43.6528C75.7831 44.3682 77.1582 44.0745 77.7484 43.0264L78.1063 42.3908C78.1591 42.2971 78.2043 42.1993 78.2413 42.0983L83.6554 27.3401C83.9108 26.6439 84.5304 26.1462 85.2652 26.0469L93.1688 24.9791C93.8415 24.8882 94.5145 25.1448 94.9559 25.6605L99.5341 31.0089C99.9141 31.4528 100.469 31.7083 101.053 31.7083H102.188C102.661 31.7083 103.118 31.8758 103.48 32.1811L106.433 34.6782C106.947 35.1131 107.646 35.2599 108.292 35.0687L115 33.0833" stroke="#75EA2C"/>
<path d="M131 55H0V57H131V55Z" fill="#262626" mask="url(#path-1-inside-1_1_4175)"/>
</svg>
