<svg width="131" height="56" viewBox="0 0 131 56" fill="none" xmlns="http://www.w3.org/2000/svg">
<path d="M15 21L24.26 26.3003C25.0167 26.7334 25.9668 26.6264 26.6082 26.0359L28.9175 23.9097C29.6424 23.2421 30.7456 23.2022 31.517 23.8156L33.2057 25.1584C34.0902 25.8618 35.3814 25.6932 36.0556 24.7862L36.8149 23.7648C36.9317 23.6076 37.071 23.4685 37.2283 23.3518L38.9338 22.0865C39.7635 21.4709 40.9255 21.5886 41.615 22.358L42.8376 23.7226C43.0659 23.9773 43.3557 24.1693 43.6793 24.2801L49.6849 26.3366C49.8935 26.408 50.1124 26.4444 50.3328 26.4444H57.2524C57.7663 26.4444 58.2605 26.6422 58.6324 26.9968L65.4362 33.4829C66.0279 34.0469 66.9033 34.1941 67.6469 33.8546L69.1251 33.1797C69.5743 32.9746 70.0835 32.9429 70.5547 33.0908L75.6559 34.6921C76.2716 34.8853 76.9428 34.7696 77.4583 34.3813L78.0155 33.9615C78.1286 33.8763 78.2323 33.7793 78.325 33.6722L83.5171 27.6679C83.8709 27.2587 84.3754 27.0103 84.9154 26.9794L93.7195 26.4747C94.0658 26.4549 94.4113 26.5254 94.7221 26.6795L99.7131 29.1531C99.9891 29.2899 100.293 29.3611 100.601 29.3611H102.573C102.803 29.3611 103.031 29.4008 103.248 29.4786L106.807 30.7552C107.102 30.8614 107.419 30.8963 107.731 30.8571L115 29.9444" stroke="#FF4775"/>
</svg>
