<svg width="131" height="56" viewBox="0 0 131 56" fill="none" xmlns="http://www.w3.org/2000/svg">
<path d="M115 41L102.955 31.9507C102.096 31.3057 100.882 31.4538 100.203 32.2863L99.5861 33.0435C98.9647 33.806 97.8811 34.0034 97.0306 33.5091L94.8277 32.2287C93.6288 31.5318 92.1018 32.2369 91.8547 33.6014L91.716 34.3673L92.0415 31.5428C92.1707 30.4218 90.944 29.6505 89.9897 30.2527V30.2527C89.4806 30.574 88.82 30.5174 88.3729 30.1144L82.9085 25.188C82.5411 24.8568 82.0639 24.6735 81.5693 24.6735H74.6235C74.174 24.6735 73.7377 24.5221 73.3848 24.2437L66.3699 18.7101C65.5326 18.0495 64.3242 18.1623 63.6235 18.9663L62.5687 20.1766C61.8679 20.9806 60.6596 21.0933 59.8222 20.4328L56.0126 17.4276C55.071 16.6848 53.6864 16.9777 53.1263 18.0382V18.0382C52.7939 18.6675 52.1406 19.0612 51.4289 19.0612H46.1005C45.3223 19.0612 44.6148 19.5126 44.2868 20.2182L38.2067 33.2988C37.9002 33.9582 37.26 34.3993 36.5347 34.4508L30.5227 34.8776H28.3806C27.8859 34.8776 27.4088 34.6942 27.0414 34.363L23.9346 31.5621C23.408 31.0874 22.6696 30.9269 21.9935 31.1402L15 33.3469" stroke="#75EA2C"/>
<path d="M131 55H0V57H131V55Z" fill="#262626" mask="url(#path-1-inside-1_1_4161)"/>
</svg>
