<svg width="131" height="56" viewBox="0 0 131 56" fill="none" xmlns="http://www.w3.org/2000/svg">
<path d="M15 35L27.6624 31.6885C28.4264 31.4887 29.2364 31.7572 29.7299 32.3737L30.7464 33.6438C31.3689 34.4217 32.4691 34.6228 33.3265 34.1153L36.6725 32.1349C37.3061 31.7599 38.1193 32.133 38.2482 32.858V32.858C38.4025 33.7255 39.4894 34.0326 40.0749 33.3742L40.9173 32.4269C41.4635 31.8127 42.3756 31.6875 43.0672 32.1319L43.8054 32.6062C44.5699 33.0975 45.5696 33.0116 46.2391 32.397L51.3266 27.7267C51.6956 27.3879 52.1782 27.2 52.6791 27.2H59.4321C59.5894 27.2 59.7461 27.2185 59.899 27.2553L67.7026 29.1286C68.1126 29.227 68.481 29.4525 68.7551 29.7728L70.6333 31.9672C71.3358 32.7879 72.563 32.9025 73.4053 32.226L77.3724 29.0394C78.2219 28.3571 79.4834 28.623 79.9852 29.5903V29.5903C80.3625 30.3178 81.1995 30.6795 81.9879 30.456L90.1908 28.1305C91.0483 27.8874 91.9632 28.2411 92.4342 28.9978L93.8585 31.2859C94.5421 32.3841 96.0726 32.5543 96.9807 31.6331L101.789 26.7559C102.165 26.3747 102.678 26.16 103.213 26.16H104.511C105.011 26.16 105.494 25.9721 105.863 25.6333L108.338 23.3618C109.155 22.6112 110.428 22.67 111.173 23.4928L115 27.72" stroke="#75EA2C"/>
<path d="M131 55H0V57H131V55Z" fill="#262626" mask="url(#path-1-inside-1_1_4153)"/>
</svg>
