<svg width="131" height="56" viewBox="0 0 131 56" fill="none" xmlns="http://www.w3.org/2000/svg">
<path d="M115 41L111.176 28.0646C110.925 27.2148 110.145 26.6316 109.258 26.6316H103.398C103.163 26.6316 102.93 26.5902 102.709 26.5093L97.5288 24.6096C96.9796 24.4082 96.3749 24.7153 96.2135 25.2776V25.2776C96.0229 25.9416 95.2359 26.2212 94.6691 25.8263L93.2711 24.8522C92.7197 24.468 92.0122 24.3864 91.3879 24.635L89.8441 25.2497C89.2796 25.4744 88.6436 25.4304 88.1154 25.13L83.0791 22.2654C82.2868 21.8147 81.29 21.9568 80.6552 22.6109L73.8207 29.6519C73.0544 30.4413 71.7944 30.4636 71.0007 29.7018L64.017 22.9986C63.3193 22.329 62.2425 22.2544 61.4593 22.8214L60.0118 23.8692C59.4091 24.3055 58.614 24.3712 57.9479 24.0397L52.8823 21.5186C52.0542 21.1064 51.0515 21.316 50.4577 22.0252L50.0077 22.5626C49.8387 22.7645 49.6315 22.931 49.398 23.0526L44.4071 25.6519C43.6702 26.0357 42.7727 25.9239 42.1525 25.3711L37.2076 20.9635C37.0975 20.8653 36.9768 20.7796 36.8478 20.708L31.9502 17.9883C31.6532 17.8234 31.319 17.7368 30.9792 17.7368H28.933C28.5863 17.7368 28.2456 17.6467 27.9442 17.4753L24.2404 15.3686C23.8224 15.1309 23.3327 15.0517 22.8611 15.1456L15 16.7105" stroke="#75EA2C"/>
<path d="M131 55H0V57H131V55Z" fill="#262626" mask="url(#path-1-inside-1_1_4173)"/>
</svg>
