<?xml version="1.0" standalone="no"?>
<!DOCTYPE svg PUBLIC "-//W3C//DTD SVG 20010904//EN"
 "http://www.w3.org/TR/2001/REC-SVG-20010904/DTD/svg10.dtd">
<svg version="1.0" xmlns="http://www.w3.org/2000/svg"
 width="48.000000pt" height="48.000000pt" viewBox="0 0 48.000000 48.000000"
 preserveAspectRatio="xMidYMid meet">

<g transform="translate(0.000000,48.000000) scale(0.100000,-0.100000)"
fill="#000000" stroke="none">
<path d="M132 275 l-34 -33 39 -35 c36 -34 38 -35 41 -14 2 12 20 36 40 54
l37 32 -37 1 c-27 0 -38 4 -38 15 0 21 -10 17 -48 -20z"/>
<path d="M300 288 c0 -14 -15 -36 -37 -55 l-38 -32 38 -1 c26 0 37 -4 37 -15
0 -21 2 -20 44 19 l37 33 -37 37 c-20 20 -38 36 -40 36 -2 0 -4 -10 -4 -22z"/>
</g>
</svg>
